<svg width="401" height="401" viewBox="0 0 401 401" fill="none" xmlns="http://www.w3.org/2000/svg">
<path d="M192 174H176C174.895 174 174 174.895 174 176V180C174 181.105 174.895 182 176 182H192C193.105 182 194 181.105 194 180V176C194 174.895 193.105 174 192 174Z" stroke="black" stroke-width="2" stroke-linecap="round" stroke-linejoin="round"/>
<path d="M192 186H176C174.895 186 174 186.895 174 188V192C174 193.105 174.895 194 176 194H192C193.105 194 194 193.105 194 192V188C194 186.895 193.105 186 192 186Z" stroke="black" stroke-width="2" stroke-linecap="round" stroke-linejoin="round"/>
<path d="M178 178H178.01" stroke="black" stroke-width="2" stroke-linecap="round" stroke-linejoin="round"/>
<path d="M178 190H178.01" stroke="black" stroke-width="2" stroke-linecap="round" stroke-linejoin="round"/>
<path d="M226 184H206" stroke="black" stroke-width="2" stroke-linecap="round" stroke-linejoin="round"/>
<path d="M209.45 177.11L206 184V190C206 190.53 206.211 191.039 206.586 191.414C206.961 191.789 207.47 192 208 192H224C224.53 192 225.039 191.789 225.414 191.414C225.789 191.039 226 190.53 226 190V184L222.55 177.11C222.384 176.777 222.129 176.496 221.813 176.3C221.497 176.104 221.132 176 220.76 176H211.24C210.868 176 210.503 176.104 210.187 176.3C209.871 176.496 209.616 176.777 209.45 177.11V177.11Z" stroke="black" stroke-width="2" stroke-linecap="round" stroke-linejoin="round"/>
<path d="M210 188H210.01" stroke="black" stroke-width="2" stroke-linecap="round" stroke-linejoin="round"/>
<path d="M214 188H214.01" stroke="black" stroke-width="2" stroke-linecap="round" stroke-linejoin="round"/>
<path d="M194 216H174" stroke="black" stroke-width="2" stroke-linecap="round" stroke-linejoin="round"/>
<path d="M177.45 209.11L174 216V222C174 222.53 174.211 223.039 174.586 223.414C174.961 223.789 175.47 224 176 224H192C192.53 224 193.039 223.789 193.414 223.414C193.789 223.039 194 222.53 194 222V216L190.55 209.11C190.384 208.777 190.129 208.496 189.813 208.3C189.497 208.104 189.132 208 188.76 208H179.24C178.868 208 178.503 208.104 178.187 208.3C177.871 208.496 177.616 208.777 177.45 209.11V209.11Z" stroke="black" stroke-width="2" stroke-linecap="round" stroke-linejoin="round"/>
<path d="M178 220H178.01" stroke="black" stroke-width="2" stroke-linecap="round" stroke-linejoin="round"/>
<path d="M182 220H182.01" stroke="black" stroke-width="2" stroke-linecap="round" stroke-linejoin="round"/>
<path d="M224 206H208C206.895 206 206 206.895 206 208V212C206 213.105 206.895 214 208 214H224C225.105 214 226 213.105 226 212V208C226 206.895 225.105 206 224 206Z" stroke="black" stroke-width="2" stroke-linecap="round" stroke-linejoin="round"/>
<path d="M224 218H208C206.895 218 206 218.895 206 220V224C206 225.105 206.895 226 208 226H224C225.105 226 226 225.105 226 224V220C226 218.895 225.105 218 224 218Z" stroke="black" stroke-width="2" stroke-linecap="round" stroke-linejoin="round"/>
<path d="M210 210H210.01" stroke="black" stroke-width="2" stroke-linecap="round" stroke-linejoin="round"/>
<path d="M210 222H210.01" stroke="black" stroke-width="2" stroke-linecap="round" stroke-linejoin="round"/>
<rect x="164.5" y="164.5" width="71" height="71" stroke="black"/>
<path d="M85 209V207C85 205.939 84.5786 204.922 83.8284 204.172C83.0783 203.421 82.0609 203 81 203H73C71.9391 203 70.9217 203.421 70.1716 204.172C69.4214 204.922 69 205.939 69 207V209" stroke="black" stroke-width="2" stroke-linecap="round" stroke-linejoin="round"/>
<path d="M77 199C79.2091 199 81 197.209 81 195C81 192.791 79.2091 191 77 191C74.7909 191 73 192.791 73 195C73 197.209 74.7909 199 77 199Z" stroke="black" stroke-width="2" stroke-linecap="round" stroke-linejoin="round"/>
<path d="M331 209V207C331 205.939 330.579 204.922 329.828 204.172C329.078 203.421 328.061 203 327 203H319C317.939 203 316.922 203.421 316.172 204.172C315.421 204.922 315 205.939 315 207V209" stroke="black" stroke-width="2" stroke-linecap="round" stroke-linejoin="round"/>
<path d="M323 199C325.209 199 327 197.209 327 195C327 192.791 325.209 191 323 191C320.791 191 319 192.791 319 195C319 197.209 320.791 199 323 199Z" stroke="black" stroke-width="2" stroke-linecap="round" stroke-linejoin="round"/>
<path d="M85 311V309C85 307.939 84.5786 306.922 83.8284 306.172C83.0783 305.421 82.0609 305 81 305H73C71.9391 305 70.9217 305.421 70.1716 306.172C69.4214 306.922 69 307.939 69 309V311" stroke="black" stroke-width="2" stroke-linecap="round" stroke-linejoin="round"/>
<path d="M77 301C79.2091 301 81 299.209 81 297C81 294.791 79.2091 293 77 293C74.7909 293 73 294.791 73 297C73 299.209 74.7909 301 77 301Z" stroke="black" stroke-width="2" stroke-linecap="round" stroke-linejoin="round"/>
<path d="M331 311V309C331 307.939 330.579 306.922 329.828 306.172C329.078 305.421 328.061 305 327 305H319C317.939 305 316.922 305.421 316.172 306.172C315.421 306.922 315 307.939 315 309V311" stroke="black" stroke-width="2" stroke-linecap="round" stroke-linejoin="round"/>
<path d="M323 301C325.209 301 327 299.209 327 297C327 294.791 325.209 293 323 293C320.791 293 319 294.791 319 297C319 299.209 320.791 301 323 301Z" stroke="black" stroke-width="2" stroke-linecap="round" stroke-linejoin="round"/>
<path d="M85 112V110C85 108.939 84.5786 107.922 83.8284 107.172C83.0783 106.421 82.0609 106 81 106H73C71.9391 106 70.9217 106.421 70.1716 107.172C69.4214 107.922 69 108.939 69 110V112" stroke="black" stroke-width="2" stroke-linecap="round" stroke-linejoin="round"/>
<path d="M77 102C79.2091 102 81 100.209 81 98C81 95.7909 79.2091 94 77 94C74.7909 94 73 95.7909 73 98C73 100.209 74.7909 102 77 102Z" stroke="black" stroke-width="2" stroke-linecap="round" stroke-linejoin="round"/>
<path d="M331 112V110C331 108.939 330.579 107.922 329.828 107.172C329.078 106.421 328.061 106 327 106H319C317.939 106 316.922 106.421 316.172 107.172C315.421 107.922 315 108.939 315 110V112" stroke="black" stroke-width="2" stroke-linecap="round" stroke-linejoin="round"/>
<path d="M323 102C325.209 102 327 100.209 327 98C327 95.7909 325.209 94 323 94C320.791 94 319 95.7909 319 98C319 100.209 320.791 102 323 102Z" stroke="black" stroke-width="2" stroke-linecap="round" stroke-linejoin="round"/>
<line x1="90.7136" y1="286.59" x2="163.714" y2="235.59" stroke="black"/>
<line x1="303.693" y1="289.394" x2="235.693" y2="236.394" stroke="black"/>
<line x1="306" y1="200.5" x2="236" y2="200.5" stroke="black"/>
<line x1="91" y1="199.5" x2="164" y2="199.5" stroke="black"/>
<line x1="94.2906" y1="113.593" x2="164.291" y2="163.593" stroke="black"/>
<line x1="306.275" y1="118.418" x2="236.275" y2="164.418" stroke="black"/>
<path d="M189.76 247.599C189.76 247.354 189.667 247.166 189.481 247.032C189.299 246.896 188.979 246.778 188.52 246.681C188.064 246.583 187.701 246.466 187.431 246.329C187.164 246.192 186.965 246.03 186.835 245.841C186.708 245.652 186.645 245.427 186.645 245.167C186.645 244.734 186.827 244.368 187.191 244.068C187.559 243.769 188.028 243.619 188.598 243.619C189.197 243.619 189.682 243.774 190.053 244.083C190.427 244.392 190.614 244.788 190.614 245.27H189.706C189.706 245.022 189.6 244.809 189.389 244.63C189.18 244.451 188.917 244.361 188.598 244.361C188.269 244.361 188.012 244.433 187.826 244.576C187.641 244.719 187.548 244.907 187.548 245.138C187.548 245.356 187.634 245.52 187.807 245.631C187.979 245.742 188.29 245.847 188.739 245.948C189.192 246.049 189.558 246.17 189.838 246.31C190.118 246.45 190.325 246.619 190.458 246.817C190.595 247.013 190.663 247.252 190.663 247.535C190.663 248.007 190.474 248.386 190.097 248.673C189.719 248.956 189.229 249.098 188.627 249.098C188.204 249.098 187.829 249.023 187.504 248.873C187.178 248.723 186.923 248.515 186.737 248.248C186.555 247.978 186.464 247.687 186.464 247.374H187.367C187.383 247.677 187.504 247.918 187.729 248.097C187.956 248.272 188.256 248.36 188.627 248.36C188.969 248.36 189.242 248.292 189.447 248.155C189.656 248.015 189.76 247.83 189.76 247.599ZM194.032 249.098C193.316 249.098 192.733 248.863 192.284 248.395C191.835 247.923 191.61 247.293 191.61 246.505V246.339C191.61 245.815 191.71 245.348 191.908 244.938C192.11 244.524 192.39 244.202 192.748 243.971C193.109 243.736 193.5 243.619 193.92 243.619C194.607 243.619 195.141 243.845 195.521 244.298C195.902 244.75 196.093 245.398 196.093 246.241V246.617H192.514C192.527 247.138 192.678 247.56 192.968 247.882C193.261 248.201 193.632 248.36 194.081 248.36C194.4 248.36 194.67 248.295 194.892 248.165C195.113 248.035 195.307 247.862 195.473 247.647L196.024 248.077C195.582 248.757 194.918 249.098 194.032 249.098ZM193.92 244.361C193.555 244.361 193.249 244.495 193.002 244.762C192.755 245.025 192.602 245.396 192.543 245.875H195.189V245.807C195.163 245.348 195.04 244.993 194.818 244.742C194.597 244.488 194.298 244.361 193.92 244.361ZM199.696 244.527C199.56 244.505 199.411 244.493 199.252 244.493C198.66 244.493 198.257 244.745 198.046 245.25V249H197.143V243.717H198.021L198.036 244.327C198.332 243.855 198.752 243.619 199.296 243.619C199.472 243.619 199.605 243.642 199.696 243.688V244.527ZM202.362 247.774L203.671 243.717H204.594L202.699 249H202.011L200.097 243.717H201.02L202.362 247.774ZM207.587 249.098C206.871 249.098 206.288 248.863 205.839 248.395C205.39 247.923 205.165 247.293 205.165 246.505V246.339C205.165 245.815 205.264 245.348 205.463 244.938C205.665 244.524 205.945 244.202 206.303 243.971C206.664 243.736 207.055 243.619 207.475 243.619C208.161 243.619 208.695 243.845 209.076 244.298C209.457 244.75 209.647 245.398 209.647 246.241V246.617H206.068C206.081 247.138 206.233 247.56 206.522 247.882C206.815 248.201 207.187 248.36 207.636 248.36C207.955 248.36 208.225 248.295 208.446 248.165C208.668 248.035 208.861 247.862 209.027 247.647L209.579 248.077C209.136 248.757 208.472 249.098 207.587 249.098ZM207.475 244.361C207.11 244.361 206.804 244.495 206.557 244.762C206.309 245.025 206.156 245.396 206.098 245.875H208.744V245.807C208.718 245.348 208.594 244.993 208.373 244.742C208.152 244.488 207.852 244.361 207.475 244.361ZM213.251 244.527C213.114 244.505 212.966 244.493 212.807 244.493C212.214 244.493 211.812 244.745 211.601 245.25V249H210.697V243.717H211.576L211.591 244.327C211.887 243.855 212.307 243.619 212.851 243.619C213.026 243.619 213.16 243.642 213.251 243.688V244.527Z" fill="black"/>
</svg>
