<svg width="401" height="401" viewBox="0 0 401 401" fill="none" xmlns="http://www.w3.org/2000/svg">
<path d="M189.615 38.6602V42H188.49V33.4688H191.637C192.57 33.4688 193.301 33.707 193.828 34.1836C194.359 34.6602 194.625 35.291 194.625 36.0762C194.625 36.9043 194.365 37.543 193.846 37.9922C193.33 38.4375 192.59 38.6602 191.625 38.6602H189.615ZM189.615 37.7402H191.637C192.238 37.7402 192.699 37.5996 193.02 37.3184C193.34 37.0332 193.5 36.623 193.5 36.0879C193.5 35.5801 193.34 35.1738 193.02 34.8691C192.699 34.5645 192.26 34.4062 191.701 34.3945H189.615V37.7402ZM195.521 38.7715C195.521 38.1504 195.643 37.5918 195.885 37.0957C196.131 36.5996 196.471 36.2168 196.904 35.9473C197.342 35.6777 197.84 35.543 198.398 35.543C199.262 35.543 199.959 35.8418 200.49 36.4395C201.025 37.0371 201.293 37.832 201.293 38.8242V38.9004C201.293 39.5176 201.174 40.0723 200.936 40.5645C200.701 41.0527 200.363 41.4336 199.922 41.707C199.484 41.9805 198.98 42.1172 198.41 42.1172C197.551 42.1172 196.854 41.8184 196.318 41.2207C195.787 40.623 195.521 39.832 195.521 38.8477V38.7715ZM196.611 38.9004C196.611 39.6035 196.773 40.168 197.098 40.5938C197.426 41.0195 197.863 41.2324 198.41 41.2324C198.961 41.2324 199.398 41.0176 199.723 40.5879C200.047 40.1543 200.209 39.5488 200.209 38.7715C200.209 38.0762 200.043 37.5137 199.711 37.084C199.383 36.6504 198.945 36.4336 198.398 36.4336C197.863 36.4336 197.432 36.6465 197.104 37.0723C196.775 37.498 196.611 38.1074 196.611 38.9004ZM202.365 38.7715C202.365 38.1504 202.486 37.5918 202.729 37.0957C202.975 36.5996 203.314 36.2168 203.748 35.9473C204.186 35.6777 204.684 35.543 205.242 35.543C206.105 35.543 206.803 35.8418 207.334 36.4395C207.869 37.0371 208.137 37.832 208.137 38.8242V38.9004C208.137 39.5176 208.018 40.0723 207.779 40.5645C207.545 41.0527 207.207 41.4336 206.766 41.707C206.328 41.9805 205.824 42.1172 205.254 42.1172C204.395 42.1172 203.697 41.8184 203.162 41.2207C202.631 40.623 202.365 39.832 202.365 38.8477V38.7715ZM203.455 38.9004C203.455 39.6035 203.617 40.168 203.941 40.5938C204.27 41.0195 204.707 41.2324 205.254 41.2324C205.805 41.2324 206.242 41.0176 206.566 40.5879C206.891 40.1543 207.053 39.5488 207.053 38.7715C207.053 38.0762 206.887 37.5137 206.555 37.084C206.227 36.6504 205.789 36.4336 205.242 36.4336C204.707 36.4336 204.275 36.6465 203.947 37.0723C203.619 37.498 203.455 38.1074 203.455 38.9004ZM210.674 42H209.59V33H210.674V42Z" fill="black"/>
<line x1="200.5" y1="52.75" x2="200.5" y2="126.75" stroke="black"/>
<path d="M179.266 142.793C179.16 143.695 178.826 144.393 178.264 144.885C177.705 145.373 176.961 145.617 176.031 145.617C175.023 145.617 174.215 145.256 173.605 144.533C173 143.811 172.697 142.844 172.697 141.633V140.812C172.697 140.02 172.838 139.322 173.119 138.721C173.404 138.119 173.807 137.658 174.326 137.338C174.846 137.014 175.447 136.852 176.131 136.852C177.037 136.852 177.764 137.105 178.311 137.613C178.857 138.117 179.176 138.816 179.266 139.711H178.135C178.037 139.031 177.824 138.539 177.496 138.234C177.172 137.93 176.717 137.777 176.131 137.777C175.412 137.777 174.848 138.043 174.438 138.574C174.031 139.105 173.828 139.861 173.828 140.842V141.668C173.828 142.594 174.021 143.33 174.408 143.877C174.795 144.424 175.336 144.697 176.031 144.697C176.656 144.697 177.135 144.557 177.467 144.275C177.803 143.99 178.025 143.496 178.135 142.793H179.266ZM180.35 142.271C180.35 141.65 180.471 141.092 180.713 140.596C180.959 140.1 181.299 139.717 181.732 139.447C182.17 139.178 182.668 139.043 183.227 139.043C184.09 139.043 184.787 139.342 185.318 139.939C185.854 140.537 186.121 141.332 186.121 142.324V142.4C186.121 143.018 186.002 143.572 185.764 144.064C185.529 144.553 185.191 144.934 184.75 145.207C184.312 145.48 183.809 145.617 183.238 145.617C182.379 145.617 181.682 145.318 181.146 144.721C180.615 144.123 180.35 143.332 180.35 142.348V142.271ZM181.439 142.4C181.439 143.104 181.602 143.668 181.926 144.094C182.254 144.52 182.691 144.732 183.238 144.732C183.789 144.732 184.227 144.518 184.551 144.088C184.875 143.654 185.037 143.049 185.037 142.271C185.037 141.576 184.871 141.014 184.539 140.584C184.211 140.15 183.773 139.934 183.227 139.934C182.691 139.934 182.26 140.146 181.932 140.572C181.604 140.998 181.439 141.607 181.439 142.4ZM188.506 139.16L188.541 139.957C189.025 139.348 189.658 139.043 190.439 139.043C191.779 139.043 192.455 139.799 192.467 141.311V145.5H191.383V141.305C191.379 140.848 191.273 140.51 191.066 140.291C190.863 140.072 190.545 139.963 190.111 139.963C189.76 139.963 189.451 140.057 189.186 140.244C188.92 140.432 188.713 140.678 188.564 140.982V145.5H187.48V139.16H188.506ZM195.127 139.16L195.162 139.957C195.646 139.348 196.279 139.043 197.061 139.043C198.4 139.043 199.076 139.799 199.088 141.311V145.5H198.004V141.305C198 140.848 197.895 140.51 197.688 140.291C197.484 140.072 197.166 139.963 196.732 139.963C196.381 139.963 196.072 140.057 195.807 140.244C195.541 140.432 195.334 140.678 195.186 140.982V145.5H194.102V139.16H195.127ZM203.354 145.617C202.494 145.617 201.795 145.336 201.256 144.773C200.717 144.207 200.447 143.451 200.447 142.506V142.307C200.447 141.678 200.566 141.117 200.805 140.625C201.047 140.129 201.383 139.742 201.812 139.465C202.246 139.184 202.715 139.043 203.219 139.043C204.043 139.043 204.684 139.314 205.141 139.857C205.598 140.4 205.826 141.178 205.826 142.189V142.641H201.531C201.547 143.266 201.729 143.771 202.076 144.158C202.428 144.541 202.873 144.732 203.412 144.732C203.795 144.732 204.119 144.654 204.385 144.498C204.65 144.342 204.883 144.135 205.082 143.877L205.744 144.393C205.213 145.209 204.416 145.617 203.354 145.617ZM203.219 139.934C202.781 139.934 202.414 140.094 202.117 140.414C201.82 140.73 201.637 141.176 201.566 141.75H204.742V141.668C204.711 141.117 204.562 140.691 204.297 140.391C204.031 140.086 203.672 139.934 203.219 139.934ZM209.629 144.732C210.016 144.732 210.354 144.615 210.643 144.381C210.932 144.146 211.092 143.854 211.123 143.502H212.148C212.129 143.865 212.004 144.211 211.773 144.539C211.543 144.867 211.234 145.129 210.848 145.324C210.465 145.52 210.059 145.617 209.629 145.617C208.766 145.617 208.078 145.33 207.566 144.756C207.059 144.178 206.805 143.389 206.805 142.389V142.207C206.805 141.59 206.918 141.041 207.145 140.561C207.371 140.08 207.695 139.707 208.117 139.441C208.543 139.176 209.045 139.043 209.623 139.043C210.334 139.043 210.924 139.256 211.393 139.682C211.865 140.107 212.117 140.66 212.148 141.34H211.123C211.092 140.93 210.936 140.594 210.654 140.332C210.377 140.066 210.033 139.934 209.623 139.934C209.072 139.934 208.645 140.133 208.34 140.531C208.039 140.926 207.889 141.498 207.889 142.248V142.453C207.889 143.184 208.039 143.746 208.34 144.141C208.641 144.535 209.07 144.732 209.629 144.732ZM214.838 137.625V139.16H216.021V139.998H214.838V143.93C214.838 144.184 214.891 144.375 214.996 144.504C215.102 144.629 215.281 144.691 215.535 144.691C215.66 144.691 215.832 144.668 216.051 144.621V145.5C215.766 145.578 215.488 145.617 215.219 145.617C214.734 145.617 214.369 145.471 214.123 145.178C213.877 144.885 213.754 144.469 213.754 143.93V139.998H212.6V139.16H213.754V137.625H214.838ZM216.889 142.271C216.889 141.65 217.01 141.092 217.252 140.596C217.498 140.1 217.838 139.717 218.271 139.447C218.709 139.178 219.207 139.043 219.766 139.043C220.629 139.043 221.326 139.342 221.857 139.939C222.393 140.537 222.66 141.332 222.66 142.324V142.4C222.66 143.018 222.541 143.572 222.303 144.064C222.068 144.553 221.73 144.934 221.289 145.207C220.852 145.48 220.348 145.617 219.777 145.617C218.918 145.617 218.221 145.318 217.686 144.721C217.154 144.123 216.889 143.332 216.889 142.348V142.271ZM217.979 142.4C217.979 143.104 218.141 143.668 218.465 144.094C218.793 144.52 219.23 144.732 219.777 144.732C220.328 144.732 220.766 144.518 221.09 144.088C221.414 143.654 221.576 143.049 221.576 142.271C221.576 141.576 221.41 141.014 221.078 140.584C220.75 140.15 220.312 139.934 219.766 139.934C219.23 139.934 218.799 140.146 218.471 140.572C218.143 140.998 217.979 141.607 217.979 142.4ZM227.084 140.133C226.92 140.105 226.742 140.092 226.551 140.092C225.84 140.092 225.357 140.395 225.104 141V145.5H224.02V139.16H225.074L225.092 139.893C225.447 139.326 225.951 139.043 226.604 139.043C226.814 139.043 226.975 139.07 227.084 139.125V140.133Z" fill="black"/>
<line x1="200.5" y1="156.25" x2="200.5" y2="230.25" stroke="black"/>
<path d="M180.766 246.293C180.66 247.195 180.326 247.893 179.764 248.385C179.205 248.873 178.461 249.117 177.531 249.117C176.523 249.117 175.715 248.756 175.105 248.033C174.5 247.311 174.197 246.344 174.197 245.133V244.312C174.197 243.52 174.338 242.822 174.619 242.221C174.904 241.619 175.307 241.158 175.826 240.838C176.346 240.514 176.947 240.352 177.631 240.352C178.537 240.352 179.264 240.605 179.811 241.113C180.357 241.617 180.676 242.316 180.766 243.211H179.635C179.537 242.531 179.324 242.039 178.996 241.734C178.672 241.43 178.217 241.277 177.631 241.277C176.912 241.277 176.348 241.543 175.938 242.074C175.531 242.605 175.328 243.361 175.328 244.342V245.168C175.328 246.094 175.521 246.83 175.908 247.377C176.295 247.924 176.836 248.197 177.531 248.197C178.156 248.197 178.635 248.057 178.967 247.775C179.303 247.49 179.525 246.996 179.635 246.293H180.766ZM181.85 245.771C181.85 245.15 181.971 244.592 182.213 244.096C182.459 243.6 182.799 243.217 183.232 242.947C183.67 242.678 184.168 242.543 184.727 242.543C185.59 242.543 186.287 242.842 186.818 243.439C187.354 244.037 187.621 244.832 187.621 245.824V245.9C187.621 246.518 187.502 247.072 187.264 247.564C187.029 248.053 186.691 248.434 186.25 248.707C185.812 248.98 185.309 249.117 184.738 249.117C183.879 249.117 183.182 248.818 182.646 248.221C182.115 247.623 181.85 246.832 181.85 245.848V245.771ZM182.939 245.9C182.939 246.604 183.102 247.168 183.426 247.594C183.754 248.02 184.191 248.232 184.738 248.232C185.289 248.232 185.727 248.018 186.051 247.588C186.375 247.154 186.537 246.549 186.537 245.771C186.537 245.076 186.371 244.514 186.039 244.084C185.711 243.65 185.273 243.434 184.727 243.434C184.191 243.434 183.76 243.646 183.432 244.072C183.104 244.498 182.939 245.107 182.939 245.9ZM190.006 242.66L190.041 243.457C190.525 242.848 191.158 242.543 191.939 242.543C193.279 242.543 193.955 243.299 193.967 244.811V249H192.883V244.805C192.879 244.348 192.773 244.01 192.566 243.791C192.363 243.572 192.045 243.463 191.611 243.463C191.26 243.463 190.951 243.557 190.686 243.744C190.42 243.932 190.213 244.178 190.064 244.482V249H188.98V242.66H190.006ZM197.072 241.125V242.66H198.256V243.498H197.072V247.43C197.072 247.684 197.125 247.875 197.23 248.004C197.336 248.129 197.516 248.191 197.77 248.191C197.895 248.191 198.066 248.168 198.285 248.121V249C198 249.078 197.723 249.117 197.453 249.117C196.969 249.117 196.604 248.971 196.357 248.678C196.111 248.385 195.988 247.969 195.988 247.43V243.498H194.834V242.66H195.988V241.125H197.072ZM202.592 243.633C202.428 243.605 202.25 243.592 202.059 243.592C201.348 243.592 200.865 243.895 200.611 244.5V249H199.527V242.66H200.582L200.6 243.393C200.955 242.826 201.459 242.543 202.111 242.543C202.322 242.543 202.482 242.57 202.592 242.625V243.633ZM203.189 245.771C203.189 245.15 203.311 244.592 203.553 244.096C203.799 243.6 204.139 243.217 204.572 242.947C205.01 242.678 205.508 242.543 206.066 242.543C206.93 242.543 207.627 242.842 208.158 243.439C208.693 244.037 208.961 244.832 208.961 245.824V245.9C208.961 246.518 208.842 247.072 208.604 247.564C208.369 248.053 208.031 248.434 207.59 248.707C207.152 248.98 206.648 249.117 206.078 249.117C205.219 249.117 204.521 248.818 203.986 248.221C203.455 247.623 203.189 246.832 203.189 245.848V245.771ZM204.279 245.9C204.279 246.604 204.441 247.168 204.766 247.594C205.094 248.02 205.531 248.232 206.078 248.232C206.629 248.232 207.066 248.018 207.391 247.588C207.715 247.154 207.877 246.549 207.877 245.771C207.877 245.076 207.711 244.514 207.379 244.084C207.051 243.65 206.613 243.434 206.066 243.434C205.531 243.434 205.1 243.646 204.771 244.072C204.443 244.498 204.279 245.107 204.279 245.9ZM211.498 249H210.414V240H211.498V249ZM214.416 249H213.332V240H214.416V249ZM218.787 249.117C217.928 249.117 217.229 248.836 216.689 248.273C216.15 247.707 215.881 246.951 215.881 246.006V245.807C215.881 245.178 216 244.617 216.238 244.125C216.48 243.629 216.816 243.242 217.246 242.965C217.68 242.684 218.148 242.543 218.652 242.543C219.477 242.543 220.117 242.814 220.574 243.357C221.031 243.9 221.26 244.678 221.26 245.689V246.141H216.965C216.98 246.766 217.162 247.271 217.51 247.658C217.861 248.041 218.307 248.232 218.846 248.232C219.229 248.232 219.553 248.154 219.818 247.998C220.084 247.842 220.316 247.635 220.516 247.377L221.178 247.893C220.646 248.709 219.85 249.117 218.787 249.117ZM218.652 243.434C218.215 243.434 217.848 243.594 217.551 243.914C217.254 244.23 217.07 244.676 217 245.25H220.176V245.168C220.145 244.617 219.996 244.191 219.73 243.891C219.465 243.586 219.105 243.434 218.652 243.434ZM225.584 243.633C225.42 243.605 225.242 243.592 225.051 243.592C224.34 243.592 223.857 243.895 223.604 244.5V249H222.52V242.66H223.574L223.592 243.393C223.947 242.826 224.451 242.543 225.104 242.543C225.314 242.543 225.475 242.57 225.584 242.625V243.633Z" fill="black"/>
<path d="M269.701 324.773H266.127L265.324 327H264.164L267.422 318.469H268.406L271.67 327H270.516L269.701 324.773ZM266.467 323.848H269.367L267.914 319.857L266.467 323.848ZM278.004 323.9C278.004 324.865 277.783 325.643 277.342 326.232C276.9 326.822 276.303 327.117 275.549 327.117C274.779 327.117 274.174 326.873 273.732 326.385V329.438H272.648V320.66H273.639L273.691 321.363C274.133 320.816 274.746 320.543 275.531 320.543C276.293 320.543 276.895 320.83 277.336 321.404C277.781 321.979 278.004 322.777 278.004 323.801V323.9ZM276.92 323.777C276.92 323.062 276.768 322.498 276.463 322.084C276.158 321.67 275.74 321.463 275.209 321.463C274.553 321.463 274.061 321.754 273.732 322.336V325.365C274.057 325.943 274.553 326.232 275.221 326.232C275.74 326.232 276.152 326.027 276.457 325.617C276.766 325.203 276.92 324.59 276.92 323.777ZM284.742 323.9C284.742 324.865 284.521 325.643 284.08 326.232C283.639 326.822 283.041 327.117 282.287 327.117C281.518 327.117 280.912 326.873 280.471 326.385V329.438H279.387V320.66H280.377L280.43 321.363C280.871 320.816 281.484 320.543 282.27 320.543C283.031 320.543 283.633 320.83 284.074 321.404C284.52 321.979 284.742 322.777 284.742 323.801V323.9ZM283.658 323.777C283.658 323.062 283.506 322.498 283.201 322.084C282.896 321.67 282.479 321.463 281.947 321.463C281.291 321.463 280.799 321.754 280.471 322.336V325.365C280.795 325.943 281.291 326.232 281.959 326.232C282.479 326.232 282.891 326.027 283.195 325.617C283.504 325.203 283.658 324.59 283.658 323.777ZM287.303 327H286.219V318H287.303V327ZM290.221 327H289.137V320.66H290.221V327ZM289.049 318.979C289.049 318.803 289.102 318.654 289.207 318.533C289.316 318.412 289.477 318.352 289.688 318.352C289.898 318.352 290.059 318.412 290.168 318.533C290.277 318.654 290.332 318.803 290.332 318.979C290.332 319.154 290.277 319.301 290.168 319.418C290.059 319.535 289.898 319.594 289.688 319.594C289.477 319.594 289.316 319.535 289.207 319.418C289.102 319.301 289.049 319.154 289.049 318.979ZM294.504 326.232C294.891 326.232 295.229 326.115 295.518 325.881C295.807 325.646 295.967 325.354 295.998 325.002H297.023C297.004 325.365 296.879 325.711 296.648 326.039C296.418 326.367 296.109 326.629 295.723 326.824C295.34 327.02 294.934 327.117 294.504 327.117C293.641 327.117 292.953 326.83 292.441 326.256C291.934 325.678 291.68 324.889 291.68 323.889V323.707C291.68 323.09 291.793 322.541 292.02 322.061C292.246 321.58 292.57 321.207 292.992 320.941C293.418 320.676 293.92 320.543 294.498 320.543C295.209 320.543 295.799 320.756 296.268 321.182C296.74 321.607 296.992 322.16 297.023 322.84H295.998C295.967 322.43 295.811 322.094 295.529 321.832C295.252 321.566 294.908 321.434 294.498 321.434C293.947 321.434 293.52 321.633 293.215 322.031C292.914 322.426 292.764 322.998 292.764 323.748V323.953C292.764 324.684 292.914 325.246 293.215 325.641C293.516 326.035 293.945 326.232 294.504 326.232ZM302.156 327C302.094 326.875 302.043 326.652 302.004 326.332C301.5 326.855 300.898 327.117 300.199 327.117C299.574 327.117 299.061 326.941 298.658 326.59C298.26 326.234 298.061 325.785 298.061 325.242C298.061 324.582 298.311 324.07 298.811 323.707C299.314 323.34 300.021 323.156 300.932 323.156H301.986V322.658C301.986 322.279 301.873 321.979 301.646 321.756C301.42 321.529 301.086 321.416 300.645 321.416C300.258 321.416 299.934 321.514 299.672 321.709C299.41 321.904 299.279 322.141 299.279 322.418H298.189C298.189 322.102 298.301 321.797 298.523 321.504C298.75 321.207 299.055 320.973 299.438 320.801C299.824 320.629 300.248 320.543 300.709 320.543C301.439 320.543 302.012 320.727 302.426 321.094C302.84 321.457 303.055 321.959 303.07 322.6V325.518C303.07 326.1 303.145 326.562 303.293 326.906V327H302.156ZM300.357 326.174C300.697 326.174 301.02 326.086 301.324 325.91C301.629 325.734 301.85 325.506 301.986 325.225V323.924H301.137C299.809 323.924 299.145 324.312 299.145 325.09C299.145 325.43 299.258 325.695 299.484 325.887C299.711 326.078 300.002 326.174 300.357 326.174ZM306.24 319.125V320.66H307.424V321.498H306.24V325.43C306.24 325.684 306.293 325.875 306.398 326.004C306.504 326.129 306.684 326.191 306.938 326.191C307.062 326.191 307.234 326.168 307.453 326.121V327C307.168 327.078 306.891 327.117 306.621 327.117C306.137 327.117 305.771 326.971 305.525 326.678C305.279 326.385 305.156 325.969 305.156 325.43V321.498H304.002V320.66H305.156V319.125H306.24ZM309.873 327H308.789V320.66H309.873V327ZM308.701 318.979C308.701 318.803 308.754 318.654 308.859 318.533C308.969 318.412 309.129 318.352 309.34 318.352C309.551 318.352 309.711 318.412 309.82 318.533C309.93 318.654 309.984 318.803 309.984 318.979C309.984 319.154 309.93 319.301 309.82 319.418C309.711 319.535 309.551 319.594 309.34 319.594C309.129 319.594 308.969 319.535 308.859 319.418C308.754 319.301 308.701 319.154 308.701 318.979ZM311.326 323.771C311.326 323.15 311.447 322.592 311.689 322.096C311.936 321.6 312.275 321.217 312.709 320.947C313.146 320.678 313.645 320.543 314.203 320.543C315.066 320.543 315.764 320.842 316.295 321.439C316.83 322.037 317.098 322.832 317.098 323.824V323.9C317.098 324.518 316.979 325.072 316.74 325.564C316.506 326.053 316.168 326.434 315.727 326.707C315.289 326.98 314.785 327.117 314.215 327.117C313.355 327.117 312.658 326.818 312.123 326.221C311.592 325.623 311.326 324.832 311.326 323.848V323.771ZM312.416 323.9C312.416 324.604 312.578 325.168 312.902 325.594C313.23 326.02 313.668 326.232 314.215 326.232C314.766 326.232 315.203 326.018 315.527 325.588C315.852 325.154 316.014 324.549 316.014 323.771C316.014 323.076 315.848 322.514 315.516 322.084C315.188 321.65 314.75 321.434 314.203 321.434C313.668 321.434 313.236 321.646 312.908 322.072C312.58 322.498 312.416 323.107 312.416 323.9ZM319.482 320.66L319.518 321.457C320.002 320.848 320.635 320.543 321.416 320.543C322.756 320.543 323.432 321.299 323.443 322.811V327H322.359V322.805C322.355 322.348 322.25 322.01 322.043 321.791C321.84 321.572 321.521 321.463 321.088 321.463C320.736 321.463 320.428 321.557 320.162 321.744C319.896 321.932 319.689 322.178 319.541 322.482V327H318.457V320.66H319.482Z" fill="black"/>
<path d="M85.1152 323.66V327H83.9902V318.469H87.1367C88.0703 318.469 88.8008 318.707 89.3281 319.184C89.8594 319.66 90.125 320.291 90.125 321.076C90.125 321.904 89.8652 322.543 89.3457 322.992C88.8301 323.438 88.0898 323.66 87.125 323.66H85.1152ZM85.1152 322.74H87.1367C87.7383 322.74 88.1992 322.6 88.5195 322.318C88.8398 322.033 89 321.623 89 321.088C89 320.58 88.8398 320.174 88.5195 319.869C88.1992 319.564 87.7598 319.406 87.2012 319.395H85.1152V322.74ZM92.5684 327H91.4844V318H92.5684V327ZM98.2227 327C98.1602 326.875 98.1094 326.652 98.0703 326.332C97.5664 326.855 96.9648 327.117 96.2656 327.117C95.6406 327.117 95.127 326.941 94.7246 326.59C94.3262 326.234 94.127 325.785 94.127 325.242C94.127 324.582 94.377 324.07 94.877 323.707C95.3809 323.34 96.0879 323.156 96.998 323.156H98.0527V322.658C98.0527 322.279 97.9395 321.979 97.7129 321.756C97.4863 321.529 97.1523 321.416 96.7109 321.416C96.3242 321.416 96 321.514 95.7383 321.709C95.4766 321.904 95.3457 322.141 95.3457 322.418H94.2559C94.2559 322.102 94.3672 321.797 94.5898 321.504C94.8164 321.207 95.1211 320.973 95.5039 320.801C95.8906 320.629 96.3145 320.543 96.7754 320.543C97.5059 320.543 98.0781 320.727 98.4922 321.094C98.9062 321.457 99.1211 321.959 99.1367 322.6V325.518C99.1367 326.1 99.2109 326.562 99.3594 326.906V327H98.2227ZM96.4238 326.174C96.7637 326.174 97.0859 326.086 97.3906 325.91C97.6953 325.734 97.916 325.506 98.0527 325.225V323.924H97.2031C95.875 323.924 95.2109 324.312 95.2109 325.09C95.2109 325.43 95.3242 325.695 95.5508 325.887C95.7773 326.078 96.0684 326.174 96.4238 326.174ZM102.816 325.412L104.293 320.66H105.453L102.904 327.979C102.51 329.033 101.883 329.561 101.023 329.561L100.818 329.543L100.414 329.467V328.588L100.707 328.611C101.074 328.611 101.359 328.537 101.562 328.389C101.77 328.24 101.939 327.969 102.072 327.574L102.312 326.93L100.051 320.66H101.234L102.816 325.412ZM108.975 327.117C108.115 327.117 107.416 326.836 106.877 326.273C106.338 325.707 106.068 324.951 106.068 324.006V323.807C106.068 323.178 106.188 322.617 106.426 322.125C106.668 321.629 107.004 321.242 107.434 320.965C107.867 320.684 108.336 320.543 108.84 320.543C109.664 320.543 110.305 320.814 110.762 321.357C111.219 321.9 111.447 322.678 111.447 323.689V324.141H107.152C107.168 324.766 107.35 325.271 107.697 325.658C108.049 326.041 108.494 326.232 109.033 326.232C109.416 326.232 109.74 326.154 110.006 325.998C110.271 325.842 110.504 325.635 110.703 325.377L111.365 325.893C110.834 326.709 110.037 327.117 108.975 327.117ZM108.84 321.434C108.402 321.434 108.035 321.594 107.738 321.914C107.441 322.23 107.258 322.676 107.188 323.25H110.363V323.168C110.332 322.617 110.184 322.191 109.918 321.891C109.652 321.586 109.293 321.434 108.84 321.434ZM115.771 321.633C115.607 321.605 115.43 321.592 115.238 321.592C114.527 321.592 114.045 321.895 113.791 322.5V327H112.707V320.66H113.762L113.779 321.393C114.135 320.826 114.639 320.543 115.291 320.543C115.502 320.543 115.662 320.57 115.771 320.625V321.633ZM120.465 325.318C120.465 325.025 120.354 324.799 120.131 324.639C119.912 324.475 119.527 324.334 118.977 324.217C118.43 324.1 117.994 323.959 117.67 323.795C117.35 323.631 117.111 323.436 116.955 323.209C116.803 322.982 116.727 322.713 116.727 322.4C116.727 321.881 116.945 321.441 117.383 321.082C117.824 320.723 118.387 320.543 119.07 320.543C119.789 320.543 120.371 320.729 120.816 321.1C121.266 321.471 121.49 321.945 121.49 322.523H120.4C120.4 322.227 120.273 321.971 120.02 321.756C119.77 321.541 119.453 321.434 119.07 321.434C118.676 321.434 118.367 321.52 118.145 321.691C117.922 321.863 117.811 322.088 117.811 322.365C117.811 322.627 117.914 322.824 118.121 322.957C118.328 323.09 118.701 323.217 119.24 323.338C119.783 323.459 120.223 323.604 120.559 323.771C120.895 323.939 121.143 324.143 121.303 324.381C121.467 324.615 121.549 324.902 121.549 325.242C121.549 325.809 121.322 326.264 120.869 326.607C120.416 326.947 119.828 327.117 119.105 327.117C118.598 327.117 118.148 327.027 117.758 326.848C117.367 326.668 117.061 326.418 116.838 326.098C116.619 325.773 116.51 325.424 116.51 325.049H117.594C117.613 325.412 117.758 325.701 118.027 325.916C118.301 326.127 118.66 326.232 119.105 326.232C119.516 326.232 119.844 326.15 120.09 325.986C120.34 325.818 120.465 325.596 120.465 325.318Z" fill="black"/>
<line x1="106.679" y1="309.254" x2="171.792" y2="254.617" stroke="black"/>
<line x1="229.321" y1="255.617" x2="290.605" y2="307.04" stroke="black"/>
<path d="M214.41 78.7734V81H213.66V75.3125H215.758C216.38 75.3125 216.867 75.4714 217.219 75.7891C217.573 76.1068 217.75 76.5273 217.75 77.0508C217.75 77.6029 217.577 78.0286 217.23 78.3281C216.887 78.625 216.393 78.7734 215.75 78.7734H214.41ZM214.41 78.1602H215.758C216.159 78.1602 216.466 78.0664 216.68 77.8789C216.893 77.6888 217 77.4154 217 77.0586C217 76.7201 216.893 76.4492 216.68 76.2461C216.466 76.043 216.173 75.9375 215.801 75.9297H214.41V78.1602ZM218.348 78.8477C218.348 78.4336 218.428 78.0612 218.59 77.7305C218.754 77.3997 218.98 77.1445 219.27 76.9648C219.561 76.7852 219.893 76.6953 220.266 76.6953C220.841 76.6953 221.306 76.8945 221.66 77.293C222.017 77.6914 222.195 78.2214 222.195 78.8828V78.9336C222.195 79.3451 222.116 79.7148 221.957 80.043C221.801 80.3685 221.576 80.6224 221.281 80.8047C220.99 80.987 220.654 81.0781 220.273 81.0781C219.701 81.0781 219.236 80.8789 218.879 80.4805C218.525 80.082 218.348 79.5547 218.348 78.8984V78.8477ZM219.074 78.9336C219.074 79.4023 219.182 79.7786 219.398 80.0625C219.617 80.3464 219.909 80.4883 220.273 80.4883C220.641 80.4883 220.932 80.3451 221.148 80.0586C221.365 79.7695 221.473 79.3659 221.473 78.8477C221.473 78.3841 221.362 78.0091 221.141 77.7227C220.922 77.4336 220.63 77.2891 220.266 77.2891C219.909 77.2891 219.621 77.431 219.402 77.7148C219.184 77.9987 219.074 78.4049 219.074 78.9336ZM225.145 77.4219C225.035 77.4036 224.917 77.3945 224.789 77.3945C224.315 77.3945 223.993 77.5964 223.824 78V81H223.102V76.7734H223.805L223.816 77.2617C224.053 76.8841 224.389 76.6953 224.824 76.6953C224.965 76.6953 225.072 76.7135 225.145 76.75V77.4219ZM226.988 75.75V76.7734H227.777V77.332H226.988V79.9531C226.988 80.1224 227.023 80.25 227.094 80.3359C227.164 80.4193 227.284 80.4609 227.453 80.4609C227.536 80.4609 227.651 80.4453 227.797 80.4141V81C227.607 81.0521 227.422 81.0781 227.242 81.0781C226.919 81.0781 226.676 80.9805 226.512 80.7852C226.348 80.5898 226.266 80.3125 226.266 79.9531V77.332H225.496V76.7734H226.266V75.75H226.988ZM231.086 79.8789C231.086 79.6836 231.012 79.5326 230.863 79.4258C230.717 79.3164 230.461 79.2227 230.094 79.1445C229.729 79.0664 229.439 78.9727 229.223 78.8633C229.009 78.7539 228.85 78.6237 228.746 78.4727C228.645 78.3216 228.594 78.1419 228.594 77.9336C228.594 77.5872 228.74 77.2943 229.031 77.0547C229.326 76.8151 229.701 76.6953 230.156 76.6953C230.635 76.6953 231.023 76.819 231.32 77.0664C231.62 77.3138 231.77 77.6302 231.77 78.0156H231.043C231.043 77.8177 230.958 77.6471 230.789 77.5039C230.622 77.3607 230.411 77.2891 230.156 77.2891C229.893 77.2891 229.688 77.3464 229.539 77.4609C229.391 77.5755 229.316 77.7253 229.316 77.9102C229.316 78.0846 229.385 78.2161 229.523 78.3047C229.661 78.3932 229.91 78.4779 230.27 78.5586C230.632 78.6393 230.924 78.7357 231.148 78.8477C231.372 78.9596 231.538 79.0951 231.645 79.2539C231.754 79.4102 231.809 79.6016 231.809 79.8281C231.809 80.2057 231.658 80.5091 231.355 80.7383C231.053 80.9648 230.661 81.0781 230.18 81.0781C229.841 81.0781 229.542 81.0182 229.281 80.8984C229.021 80.7786 228.816 80.612 228.668 80.3984C228.522 80.1823 228.449 79.9492 228.449 79.6992H229.172C229.185 79.9414 229.281 80.1341 229.461 80.2773C229.643 80.418 229.883 80.4883 230.18 80.4883C230.453 80.4883 230.672 80.4336 230.836 80.3242C231.003 80.2122 231.086 80.0638 231.086 79.8789ZM216.801 88.5156H214.418L213.883 90H213.109L215.281 84.3125H215.938L218.113 90H217.344L216.801 88.5156ZM214.645 87.8984H216.578L215.609 85.2383L214.645 87.8984ZM219.965 89.0195L221.012 85.7734H221.75L220.234 90H219.684L218.152 85.7734H218.891L219.965 89.0195ZM224.992 90C224.951 89.9167 224.917 89.7682 224.891 89.5547C224.555 89.9036 224.154 90.0781 223.688 90.0781C223.271 90.0781 222.928 89.9609 222.66 89.7266C222.395 89.4896 222.262 89.1901 222.262 88.8281C222.262 88.388 222.428 88.0469 222.762 87.8047C223.098 87.5599 223.569 87.4375 224.176 87.4375H224.879V87.1055C224.879 86.8529 224.803 86.6523 224.652 86.5039C224.501 86.3529 224.279 86.2773 223.984 86.2773C223.727 86.2773 223.51 86.3424 223.336 86.4727C223.161 86.6029 223.074 86.7604 223.074 86.9453H222.348C222.348 86.7344 222.422 86.5312 222.57 86.3359C222.721 86.138 222.924 85.9818 223.18 85.8672C223.438 85.7526 223.72 85.6953 224.027 85.6953C224.514 85.6953 224.896 85.8177 225.172 86.0625C225.448 86.3047 225.591 86.6393 225.602 87.0664V89.0117C225.602 89.3997 225.651 89.7083 225.75 89.9375V90H224.992ZM223.793 89.4492C224.02 89.4492 224.234 89.3906 224.438 89.2734C224.641 89.1562 224.788 89.0039 224.879 88.8164V87.9492H224.312C223.427 87.9492 222.984 88.2083 222.984 88.7266C222.984 88.9531 223.06 89.1302 223.211 89.2578C223.362 89.3854 223.556 89.4492 223.793 89.4492ZM227.52 90H226.797V85.7734H227.52V90ZM226.738 84.6523C226.738 84.5352 226.773 84.4362 226.844 84.3555C226.917 84.2747 227.023 84.2344 227.164 84.2344C227.305 84.2344 227.411 84.2747 227.484 84.3555C227.557 84.4362 227.594 84.5352 227.594 84.6523C227.594 84.7695 227.557 84.8672 227.484 84.9453C227.411 85.0234 227.305 85.0625 227.164 85.0625C227.023 85.0625 226.917 85.0234 226.844 84.9453C226.773 84.8672 226.738 84.7695 226.738 84.6523ZM229.465 90H228.742V84H229.465V90ZM233.234 90C233.193 89.9167 233.159 89.7682 233.133 89.5547C232.797 89.9036 232.396 90.0781 231.93 90.0781C231.513 90.0781 231.171 89.9609 230.902 89.7266C230.637 89.4896 230.504 89.1901 230.504 88.8281C230.504 88.388 230.671 88.0469 231.004 87.8047C231.34 87.5599 231.811 87.4375 232.418 87.4375H233.121V87.1055C233.121 86.8529 233.046 86.6523 232.895 86.5039C232.743 86.3529 232.521 86.2773 232.227 86.2773C231.969 86.2773 231.753 86.3424 231.578 86.4727C231.404 86.6029 231.316 86.7604 231.316 86.9453H230.59C230.59 86.7344 230.664 86.5312 230.812 86.3359C230.964 86.138 231.167 85.9818 231.422 85.8672C231.68 85.7526 231.962 85.6953 232.27 85.6953C232.757 85.6953 233.138 85.8177 233.414 86.0625C233.69 86.3047 233.833 86.6393 233.844 87.0664V89.0117C233.844 89.3997 233.893 89.7083 233.992 89.9375V90H233.234ZM232.035 89.4492C232.262 89.4492 232.477 89.3906 232.68 89.2734C232.883 89.1562 233.03 89.0039 233.121 88.8164V87.9492H232.555C231.669 87.9492 231.227 88.2083 231.227 88.7266C231.227 88.9531 231.302 89.1302 231.453 89.2578C231.604 89.3854 231.798 89.4492 232.035 89.4492ZM238.555 87.9336C238.555 88.5794 238.406 89.099 238.109 89.4922C237.812 89.8828 237.414 90.0781 236.914 90.0781C236.38 90.0781 235.967 89.8893 235.676 89.5117L235.641 90H234.977V84H235.699V86.2383C235.991 85.8763 236.393 85.6953 236.906 85.6953C237.419 85.6953 237.822 85.8893 238.113 86.2773C238.408 86.6654 238.555 87.1966 238.555 87.8711V87.9336ZM237.832 87.8516C237.832 87.3594 237.737 86.9792 237.547 86.7109C237.357 86.4427 237.083 86.3086 236.727 86.3086C236.25 86.3086 235.908 86.5299 235.699 86.9727V88.8008C235.921 89.2435 236.266 89.4648 236.734 89.4648C237.081 89.4648 237.35 89.3307 237.543 89.0625C237.736 88.7943 237.832 88.3906 237.832 87.8516ZM240.254 90H239.531V84H240.254V90ZM243.168 90.0781C242.595 90.0781 242.129 89.8906 241.77 89.5156C241.41 89.138 241.23 88.6341 241.23 88.0039V87.8711C241.23 87.4518 241.31 87.0781 241.469 86.75C241.63 86.4193 241.854 86.1615 242.141 85.9766C242.43 85.7891 242.742 85.6953 243.078 85.6953C243.628 85.6953 244.055 85.8763 244.359 86.2383C244.664 86.6003 244.816 87.1185 244.816 87.793V88.0938H241.953C241.964 88.5104 242.085 88.8477 242.316 89.1055C242.551 89.3607 242.848 89.4883 243.207 89.4883C243.462 89.4883 243.678 89.4362 243.855 89.332C244.033 89.2279 244.188 89.0898 244.32 88.918L244.762 89.2617C244.408 89.806 243.876 90.0781 243.168 90.0781ZM243.078 86.2891C242.786 86.2891 242.542 86.3958 242.344 86.6094C242.146 86.8203 242.023 87.1172 241.977 87.5H244.094V87.4453C244.073 87.0781 243.974 86.7943 243.797 86.5938C243.62 86.3906 243.38 86.2891 243.078 86.2891ZM247.469 87.8516C247.469 87.1927 247.621 86.6693 247.926 86.2812C248.23 85.8906 248.634 85.6953 249.137 85.6953C249.652 85.6953 250.055 85.8776 250.344 86.2422L250.379 85.7734H251.039V89.8984C251.039 90.4453 250.876 90.8763 250.551 91.1914C250.228 91.5065 249.793 91.6641 249.246 91.6641C248.941 91.6641 248.643 91.599 248.352 91.4688C248.06 91.3385 247.837 91.1602 247.684 90.9336L248.059 90.5C248.368 90.8828 248.747 91.0742 249.195 91.0742C249.547 91.0742 249.82 90.9753 250.016 90.7773C250.214 90.5794 250.312 90.3008 250.312 89.9414V89.5781C250.023 89.9115 249.629 90.0781 249.129 90.0781C248.634 90.0781 248.233 89.8789 247.926 89.4805C247.621 89.082 247.469 88.5391 247.469 87.8516ZM248.195 87.9336C248.195 88.4102 248.293 88.7852 248.488 89.0586C248.684 89.3294 248.957 89.4648 249.309 89.4648C249.764 89.4648 250.099 89.2578 250.312 88.8438V86.9141C250.091 86.5104 249.759 86.3086 249.316 86.3086C248.965 86.3086 248.69 86.4453 248.492 86.7188C248.294 86.9922 248.195 87.3971 248.195 87.9336ZM254.742 90C254.701 89.9167 254.667 89.7682 254.641 89.5547C254.305 89.9036 253.904 90.0781 253.438 90.0781C253.021 90.0781 252.678 89.9609 252.41 89.7266C252.145 89.4896 252.012 89.1901 252.012 88.8281C252.012 88.388 252.178 88.0469 252.512 87.8047C252.848 87.5599 253.319 87.4375 253.926 87.4375H254.629V87.1055C254.629 86.8529 254.553 86.6523 254.402 86.5039C254.251 86.3529 254.029 86.2773 253.734 86.2773C253.477 86.2773 253.26 86.3424 253.086 86.4727C252.911 86.6029 252.824 86.7604 252.824 86.9453H252.098C252.098 86.7344 252.172 86.5312 252.32 86.3359C252.471 86.138 252.674 85.9818 252.93 85.8672C253.188 85.7526 253.47 85.6953 253.777 85.6953C254.264 85.6953 254.646 85.8177 254.922 86.0625C255.198 86.3047 255.341 86.6393 255.352 87.0664V89.0117C255.352 89.3997 255.401 89.7083 255.5 89.9375V90H254.742ZM253.543 89.4492C253.77 89.4492 253.984 89.3906 254.188 89.2734C254.391 89.1562 254.538 89.0039 254.629 88.8164V87.9492H254.062C253.177 87.9492 252.734 88.2083 252.734 88.7266C252.734 88.9531 252.81 89.1302 252.961 89.2578C253.112 89.3854 253.306 89.4492 253.543 89.4492ZM257.164 85.7734L257.184 86.2422C257.493 85.8776 257.911 85.6953 258.438 85.6953C259.029 85.6953 259.431 85.9219 259.645 86.375C259.785 86.1719 259.967 86.0078 260.191 85.8828C260.418 85.7578 260.685 85.6953 260.992 85.6953C261.919 85.6953 262.391 86.1862 262.406 87.168V90H261.684V87.2109C261.684 86.9089 261.615 86.6836 261.477 86.5352C261.339 86.3841 261.107 86.3086 260.781 86.3086C260.513 86.3086 260.29 86.3893 260.113 86.5508C259.936 86.7096 259.833 86.9245 259.805 87.1953V90H259.078V87.2305C259.078 86.6159 258.777 86.3086 258.176 86.3086C257.702 86.3086 257.378 86.5104 257.203 86.9141V90H256.48V85.7734H257.164ZM265.254 90.0781C264.681 90.0781 264.215 89.8906 263.855 89.5156C263.496 89.138 263.316 88.6341 263.316 88.0039V87.8711C263.316 87.4518 263.396 87.0781 263.555 86.75C263.716 86.4193 263.94 86.1615 264.227 85.9766C264.516 85.7891 264.828 85.6953 265.164 85.6953C265.714 85.6953 266.141 85.8763 266.445 86.2383C266.75 86.6003 266.902 87.1185 266.902 87.793V88.0938H264.039C264.049 88.5104 264.171 88.8477 264.402 89.1055C264.637 89.3607 264.934 89.4883 265.293 89.4883C265.548 89.4883 265.764 89.4362 265.941 89.332C266.118 89.2279 266.273 89.0898 266.406 88.918L266.848 89.2617C266.493 89.806 265.962 90.0781 265.254 90.0781ZM265.164 86.2891C264.872 86.2891 264.628 86.3958 264.43 86.6094C264.232 86.8203 264.109 87.1172 264.062 87.5H266.18V87.4453C266.159 87.0781 266.06 86.7943 265.883 86.5938C265.706 86.3906 265.466 86.2891 265.164 86.2891ZM270.203 88.8789C270.203 88.6836 270.129 88.5326 269.98 88.4258C269.835 88.3164 269.578 88.2227 269.211 88.1445C268.846 88.0664 268.556 87.9727 268.34 87.8633C268.126 87.7539 267.967 87.6237 267.863 87.4727C267.762 87.3216 267.711 87.1419 267.711 86.9336C267.711 86.5872 267.857 86.2943 268.148 86.0547C268.443 85.8151 268.818 85.6953 269.273 85.6953C269.753 85.6953 270.141 85.819 270.438 86.0664C270.737 86.3138 270.887 86.6302 270.887 87.0156H270.16C270.16 86.8177 270.076 86.6471 269.906 86.5039C269.74 86.3607 269.529 86.2891 269.273 86.2891C269.01 86.2891 268.805 86.3464 268.656 86.4609C268.508 86.5755 268.434 86.7253 268.434 86.9102C268.434 87.0846 268.503 87.2161 268.641 87.3047C268.779 87.3932 269.027 87.4779 269.387 87.5586C269.749 87.6393 270.042 87.7357 270.266 87.8477C270.49 87.9596 270.655 88.0951 270.762 88.2539C270.871 88.4102 270.926 88.6016 270.926 88.8281C270.926 89.2057 270.775 89.5091 270.473 89.7383C270.171 89.9648 269.779 90.0781 269.297 90.0781C268.958 90.0781 268.659 90.0182 268.398 89.8984C268.138 89.7786 267.934 89.612 267.785 89.3984C267.639 89.1823 267.566 88.9492 267.566 88.6992H268.289C268.302 88.9414 268.398 89.1341 268.578 89.2773C268.76 89.418 269 89.4883 269.297 89.4883C269.57 89.4883 269.789 89.4336 269.953 89.3242C270.12 89.2122 270.203 89.0638 270.203 88.8789Z" fill="black"/>
<path d="M214.41 186.773V189H213.66V183.312H215.758C216.38 183.312 216.867 183.471 217.219 183.789C217.573 184.107 217.75 184.527 217.75 185.051C217.75 185.603 217.577 186.029 217.23 186.328C216.887 186.625 216.393 186.773 215.75 186.773H214.41ZM214.41 186.16H215.758C216.159 186.16 216.466 186.066 216.68 185.879C216.893 185.689 217 185.415 217 185.059C217 184.72 216.893 184.449 216.68 184.246C216.466 184.043 216.173 183.938 215.801 183.93H214.41V186.16ZM219.379 189H218.656V183H219.379V189ZM223.148 189C223.107 188.917 223.073 188.768 223.047 188.555C222.711 188.904 222.31 189.078 221.844 189.078C221.427 189.078 221.085 188.961 220.816 188.727C220.551 188.49 220.418 188.19 220.418 187.828C220.418 187.388 220.585 187.047 220.918 186.805C221.254 186.56 221.725 186.438 222.332 186.438H223.035V186.105C223.035 185.853 222.96 185.652 222.809 185.504C222.658 185.353 222.435 185.277 222.141 185.277C221.883 185.277 221.667 185.342 221.492 185.473C221.318 185.603 221.23 185.76 221.23 185.945H220.504C220.504 185.734 220.578 185.531 220.727 185.336C220.878 185.138 221.081 184.982 221.336 184.867C221.594 184.753 221.876 184.695 222.184 184.695C222.671 184.695 223.052 184.818 223.328 185.062C223.604 185.305 223.747 185.639 223.758 186.066V188.012C223.758 188.4 223.807 188.708 223.906 188.938V189H223.148ZM221.949 188.449C222.176 188.449 222.391 188.391 222.594 188.273C222.797 188.156 222.944 188.004 223.035 187.816V186.949H222.469C221.583 186.949 221.141 187.208 221.141 187.727C221.141 187.953 221.216 188.13 221.367 188.258C221.518 188.385 221.712 188.449 221.949 188.449ZM226.211 187.941L227.195 184.773H227.969L226.27 189.652C226.007 190.355 225.589 190.707 225.016 190.707L224.879 190.695L224.609 190.645V190.059L224.805 190.074C225.049 190.074 225.24 190.025 225.375 189.926C225.513 189.827 225.626 189.646 225.715 189.383L225.875 188.953L224.367 184.773H225.156L226.211 187.941ZM230.316 189.078C229.743 189.078 229.277 188.891 228.918 188.516C228.559 188.138 228.379 187.634 228.379 187.004V186.871C228.379 186.452 228.458 186.078 228.617 185.75C228.779 185.419 229.003 185.161 229.289 184.977C229.578 184.789 229.891 184.695 230.227 184.695C230.776 184.695 231.203 184.876 231.508 185.238C231.812 185.6 231.965 186.118 231.965 186.793V187.094H229.102C229.112 187.51 229.233 187.848 229.465 188.105C229.699 188.361 229.996 188.488 230.355 188.488C230.611 188.488 230.827 188.436 231.004 188.332C231.181 188.228 231.336 188.09 231.469 187.918L231.91 188.262C231.556 188.806 231.025 189.078 230.316 189.078ZM230.227 185.289C229.935 185.289 229.69 185.396 229.492 185.609C229.294 185.82 229.172 186.117 229.125 186.5H231.242V186.445C231.221 186.078 231.122 185.794 230.945 185.594C230.768 185.391 230.529 185.289 230.227 185.289ZM234.848 185.422C234.738 185.404 234.62 185.395 234.492 185.395C234.018 185.395 233.697 185.596 233.527 186V189H232.805V184.773H233.508L233.52 185.262C233.757 184.884 234.092 184.695 234.527 184.695C234.668 184.695 234.775 184.714 234.848 184.75V185.422ZM237.977 187.879C237.977 187.684 237.902 187.533 237.754 187.426C237.608 187.316 237.352 187.223 236.984 187.145C236.62 187.066 236.329 186.973 236.113 186.863C235.9 186.754 235.741 186.624 235.637 186.473C235.535 186.322 235.484 186.142 235.484 185.934C235.484 185.587 235.63 185.294 235.922 185.055C236.216 184.815 236.591 184.695 237.047 184.695C237.526 184.695 237.914 184.819 238.211 185.066C238.51 185.314 238.66 185.63 238.66 186.016H237.934C237.934 185.818 237.849 185.647 237.68 185.504C237.513 185.361 237.302 185.289 237.047 185.289C236.784 185.289 236.578 185.346 236.43 185.461C236.281 185.576 236.207 185.725 236.207 185.91C236.207 186.085 236.276 186.216 236.414 186.305C236.552 186.393 236.801 186.478 237.16 186.559C237.522 186.639 237.815 186.736 238.039 186.848C238.263 186.96 238.428 187.095 238.535 187.254C238.645 187.41 238.699 187.602 238.699 187.828C238.699 188.206 238.548 188.509 238.246 188.738C237.944 188.965 237.552 189.078 237.07 189.078C236.732 189.078 236.432 189.018 236.172 188.898C235.911 188.779 235.707 188.612 235.559 188.398C235.413 188.182 235.34 187.949 235.34 187.699H236.062C236.076 187.941 236.172 188.134 236.352 188.277C236.534 188.418 236.773 188.488 237.07 188.488C237.344 188.488 237.562 188.434 237.727 188.324C237.893 188.212 237.977 188.064 237.977 187.879ZM216.801 196.516H214.418L213.883 198H213.109L215.281 192.312H215.938L218.113 198H217.344L216.801 196.516ZM214.645 195.898H216.578L215.609 193.238L214.645 195.898ZM222.336 195.934C222.336 196.577 222.189 197.095 221.895 197.488C221.6 197.882 221.202 198.078 220.699 198.078C220.186 198.078 219.783 197.915 219.488 197.59V199.625H218.766V193.773H219.426L219.461 194.242C219.755 193.878 220.164 193.695 220.688 193.695C221.195 193.695 221.596 193.887 221.891 194.27C222.188 194.652 222.336 195.185 222.336 195.867V195.934ZM221.613 195.852C221.613 195.375 221.512 194.999 221.309 194.723C221.105 194.447 220.827 194.309 220.473 194.309C220.035 194.309 219.707 194.503 219.488 194.891V196.91C219.704 197.296 220.035 197.488 220.48 197.488C220.827 197.488 221.102 197.352 221.305 197.078C221.51 196.802 221.613 196.393 221.613 195.852ZM226.828 195.934C226.828 196.577 226.681 197.095 226.387 197.488C226.092 197.882 225.694 198.078 225.191 198.078C224.678 198.078 224.275 197.915 223.98 197.59V199.625H223.258V193.773H223.918L223.953 194.242C224.247 193.878 224.656 193.695 225.18 193.695C225.688 193.695 226.089 193.887 226.383 194.27C226.68 194.652 226.828 195.185 226.828 195.867V195.934ZM226.105 195.852C226.105 195.375 226.004 194.999 225.801 194.723C225.598 194.447 225.319 194.309 224.965 194.309C224.527 194.309 224.199 194.503 223.98 194.891V196.91C224.197 197.296 224.527 197.488 224.973 197.488C225.319 197.488 225.594 197.352 225.797 197.078C226.003 196.802 226.105 196.393 226.105 195.852ZM228.535 198H227.812V192H228.535V198ZM230.48 198H229.758V193.773H230.48V198ZM229.699 192.652C229.699 192.535 229.734 192.436 229.805 192.355C229.878 192.275 229.984 192.234 230.125 192.234C230.266 192.234 230.372 192.275 230.445 192.355C230.518 192.436 230.555 192.535 230.555 192.652C230.555 192.77 230.518 192.867 230.445 192.945C230.372 193.023 230.266 193.062 230.125 193.062C229.984 193.062 229.878 193.023 229.805 192.945C229.734 192.867 229.699 192.77 229.699 192.652ZM233.336 197.488C233.594 197.488 233.819 197.41 234.012 197.254C234.204 197.098 234.311 196.902 234.332 196.668H235.016C235.003 196.91 234.919 197.141 234.766 197.359C234.612 197.578 234.406 197.753 234.148 197.883C233.893 198.013 233.622 198.078 233.336 198.078C232.76 198.078 232.302 197.887 231.961 197.504C231.622 197.118 231.453 196.592 231.453 195.926V195.805C231.453 195.393 231.529 195.027 231.68 194.707C231.831 194.387 232.047 194.138 232.328 193.961C232.612 193.784 232.947 193.695 233.332 193.695C233.806 193.695 234.199 193.837 234.512 194.121C234.827 194.405 234.995 194.773 235.016 195.227H234.332C234.311 194.953 234.207 194.729 234.02 194.555C233.835 194.378 233.605 194.289 233.332 194.289C232.965 194.289 232.68 194.422 232.477 194.688C232.276 194.951 232.176 195.332 232.176 195.832V195.969C232.176 196.456 232.276 196.831 232.477 197.094C232.677 197.357 232.964 197.488 233.336 197.488ZM238.438 198C238.396 197.917 238.362 197.768 238.336 197.555C238 197.904 237.599 198.078 237.133 198.078C236.716 198.078 236.374 197.961 236.105 197.727C235.84 197.49 235.707 197.19 235.707 196.828C235.707 196.388 235.874 196.047 236.207 195.805C236.543 195.56 237.014 195.438 237.621 195.438H238.324V195.105C238.324 194.853 238.249 194.652 238.098 194.504C237.947 194.353 237.724 194.277 237.43 194.277C237.172 194.277 236.956 194.342 236.781 194.473C236.607 194.603 236.52 194.76 236.52 194.945H235.793C235.793 194.734 235.867 194.531 236.016 194.336C236.167 194.138 236.37 193.982 236.625 193.867C236.883 193.753 237.165 193.695 237.473 193.695C237.96 193.695 238.341 193.818 238.617 194.062C238.893 194.305 239.036 194.639 239.047 195.066V197.012C239.047 197.4 239.096 197.708 239.195 197.938V198H238.438ZM237.238 197.449C237.465 197.449 237.68 197.391 237.883 197.273C238.086 197.156 238.233 197.004 238.324 196.816V195.949H237.758C236.872 195.949 236.43 196.208 236.43 196.727C236.43 196.953 236.505 197.13 236.656 197.258C236.807 197.385 237.001 197.449 237.238 197.449ZM241.16 192.75V193.773H241.949V194.332H241.16V196.953C241.16 197.122 241.195 197.25 241.266 197.336C241.336 197.419 241.456 197.461 241.625 197.461C241.708 197.461 241.823 197.445 241.969 197.414V198C241.779 198.052 241.594 198.078 241.414 198.078C241.091 198.078 240.848 197.98 240.684 197.785C240.52 197.59 240.438 197.312 240.438 196.953V194.332H239.668V193.773H240.438V192.75H241.16ZM243.582 198H242.859V193.773H243.582V198ZM242.801 192.652C242.801 192.535 242.836 192.436 242.906 192.355C242.979 192.275 243.086 192.234 243.227 192.234C243.367 192.234 243.474 192.275 243.547 192.355C243.62 192.436 243.656 192.535 243.656 192.652C243.656 192.77 243.62 192.867 243.547 192.945C243.474 193.023 243.367 193.062 243.227 193.062C243.086 193.062 242.979 193.023 242.906 192.945C242.836 192.867 242.801 192.77 242.801 192.652ZM244.551 195.848C244.551 195.434 244.632 195.061 244.793 194.73C244.957 194.4 245.184 194.145 245.473 193.965C245.764 193.785 246.096 193.695 246.469 193.695C247.044 193.695 247.509 193.895 247.863 194.293C248.22 194.691 248.398 195.221 248.398 195.883V195.934C248.398 196.345 248.319 196.715 248.16 197.043C248.004 197.368 247.779 197.622 247.484 197.805C247.193 197.987 246.857 198.078 246.477 198.078C245.904 198.078 245.439 197.879 245.082 197.48C244.728 197.082 244.551 196.555 244.551 195.898V195.848ZM245.277 195.934C245.277 196.402 245.385 196.779 245.602 197.062C245.82 197.346 246.112 197.488 246.477 197.488C246.844 197.488 247.135 197.345 247.352 197.059C247.568 196.77 247.676 196.366 247.676 195.848C247.676 195.384 247.565 195.009 247.344 194.723C247.125 194.434 246.833 194.289 246.469 194.289C246.112 194.289 245.824 194.431 245.605 194.715C245.387 194.999 245.277 195.405 245.277 195.934ZM249.988 193.773L250.012 194.305C250.335 193.898 250.757 193.695 251.277 193.695C252.171 193.695 252.621 194.199 252.629 195.207V198H251.906V195.203C251.904 194.898 251.833 194.673 251.695 194.527C251.56 194.382 251.348 194.309 251.059 194.309C250.824 194.309 250.618 194.371 250.441 194.496C250.264 194.621 250.126 194.785 250.027 194.988V198H249.305V193.773H249.988ZM259.273 195.934C259.273 196.577 259.126 197.095 258.832 197.488C258.538 197.882 258.139 198.078 257.637 198.078C257.124 198.078 256.72 197.915 256.426 197.59V199.625H255.703V193.773H256.363L256.398 194.242C256.693 193.878 257.102 193.695 257.625 193.695C258.133 193.695 258.534 193.887 258.828 194.27C259.125 194.652 259.273 195.185 259.273 195.867V195.934ZM258.551 195.852C258.551 195.375 258.449 194.999 258.246 194.723C258.043 194.447 257.764 194.309 257.41 194.309C256.973 194.309 256.645 194.503 256.426 194.891V196.91C256.642 197.296 256.973 197.488 257.418 197.488C257.764 197.488 258.039 197.352 258.242 197.078C258.448 196.802 258.551 196.393 258.551 195.852ZM260.004 195.848C260.004 195.434 260.085 195.061 260.246 194.73C260.41 194.4 260.637 194.145 260.926 193.965C261.217 193.785 261.549 193.695 261.922 193.695C262.497 193.695 262.962 193.895 263.316 194.293C263.673 194.691 263.852 195.221 263.852 195.883V195.934C263.852 196.345 263.772 196.715 263.613 197.043C263.457 197.368 263.232 197.622 262.938 197.805C262.646 197.987 262.31 198.078 261.93 198.078C261.357 198.078 260.892 197.879 260.535 197.48C260.181 197.082 260.004 196.555 260.004 195.898V195.848ZM260.73 195.934C260.73 196.402 260.839 196.779 261.055 197.062C261.273 197.346 261.565 197.488 261.93 197.488C262.297 197.488 262.589 197.345 262.805 197.059C263.021 196.77 263.129 196.366 263.129 195.848C263.129 195.384 263.018 195.009 262.797 194.723C262.578 194.434 262.286 194.289 261.922 194.289C261.565 194.289 261.277 194.431 261.059 194.715C260.84 194.999 260.73 195.405 260.73 195.934ZM266.801 194.422C266.691 194.404 266.573 194.395 266.445 194.395C265.971 194.395 265.65 194.596 265.48 195V198H264.758V193.773H265.461L265.473 194.262C265.71 193.884 266.046 193.695 266.48 193.695C266.621 193.695 266.728 193.714 266.801 193.75V194.422ZM268.645 192.75V193.773H269.434V194.332H268.645V196.953C268.645 197.122 268.68 197.25 268.75 197.336C268.82 197.419 268.94 197.461 269.109 197.461C269.193 197.461 269.307 197.445 269.453 197.414V198C269.263 198.052 269.078 198.078 268.898 198.078C268.576 198.078 268.332 197.98 268.168 197.785C268.004 197.59 267.922 197.312 267.922 196.953V194.332H267.152V193.773H267.922V192.75H268.645ZM272.742 196.879C272.742 196.684 272.668 196.533 272.52 196.426C272.374 196.316 272.117 196.223 271.75 196.145C271.385 196.066 271.095 195.973 270.879 195.863C270.665 195.754 270.507 195.624 270.402 195.473C270.301 195.322 270.25 195.142 270.25 194.934C270.25 194.587 270.396 194.294 270.688 194.055C270.982 193.815 271.357 193.695 271.812 193.695C272.292 193.695 272.68 193.819 272.977 194.066C273.276 194.314 273.426 194.63 273.426 195.016H272.699C272.699 194.818 272.615 194.647 272.445 194.504C272.279 194.361 272.068 194.289 271.812 194.289C271.549 194.289 271.344 194.346 271.195 194.461C271.047 194.576 270.973 194.725 270.973 194.91C270.973 195.085 271.042 195.216 271.18 195.305C271.318 195.393 271.566 195.478 271.926 195.559C272.288 195.639 272.581 195.736 272.805 195.848C273.029 195.96 273.194 196.095 273.301 196.254C273.41 196.41 273.465 196.602 273.465 196.828C273.465 197.206 273.314 197.509 273.012 197.738C272.71 197.965 272.318 198.078 271.836 198.078C271.497 198.078 271.198 198.018 270.938 197.898C270.677 197.779 270.473 197.612 270.324 197.398C270.178 197.182 270.105 196.949 270.105 196.699H270.828C270.841 196.941 270.938 197.134 271.117 197.277C271.299 197.418 271.539 197.488 271.836 197.488C272.109 197.488 272.328 197.434 272.492 197.324C272.659 197.212 272.742 197.064 272.742 196.879Z" fill="black"/>
<path d="M268.859 270.254C268.667 270.53 268.397 270.737 268.051 270.875C267.707 271.01 267.306 271.078 266.848 271.078C266.384 271.078 265.973 270.97 265.613 270.754C265.254 270.535 264.975 270.225 264.777 269.824C264.582 269.423 264.482 268.958 264.477 268.43V267.934C264.477 267.077 264.676 266.413 265.074 265.941C265.475 265.47 266.038 265.234 266.762 265.234C267.355 265.234 267.833 265.387 268.195 265.691C268.557 265.993 268.779 266.423 268.859 266.98H268.109C267.969 266.228 267.521 265.852 266.766 265.852C266.263 265.852 265.882 266.029 265.621 266.383C265.363 266.734 265.233 267.245 265.23 267.914V268.379C265.23 269.017 265.376 269.525 265.668 269.902C265.96 270.277 266.354 270.465 266.852 270.465C267.133 270.465 267.379 270.434 267.59 270.371C267.801 270.309 267.975 270.203 268.113 270.055V268.777H266.797V268.168H268.859V270.254ZM272.609 271C272.568 270.917 272.534 270.768 272.508 270.555C272.172 270.904 271.771 271.078 271.305 271.078C270.888 271.078 270.546 270.961 270.277 270.727C270.012 270.49 269.879 270.19 269.879 269.828C269.879 269.388 270.046 269.047 270.379 268.805C270.715 268.56 271.186 268.438 271.793 268.438H272.496V268.105C272.496 267.853 272.421 267.652 272.27 267.504C272.118 267.353 271.896 267.277 271.602 267.277C271.344 267.277 271.128 267.342 270.953 267.473C270.779 267.603 270.691 267.76 270.691 267.945H269.965C269.965 267.734 270.039 267.531 270.188 267.336C270.339 267.138 270.542 266.982 270.797 266.867C271.055 266.753 271.337 266.695 271.645 266.695C272.132 266.695 272.513 266.818 272.789 267.062C273.065 267.305 273.208 267.639 273.219 268.066V270.012C273.219 270.4 273.268 270.708 273.367 270.938V271H272.609ZM271.41 270.449C271.637 270.449 271.852 270.391 272.055 270.273C272.258 270.156 272.405 270.004 272.496 269.816V268.949H271.93C271.044 268.949 270.602 269.208 270.602 269.727C270.602 269.953 270.677 270.13 270.828 270.258C270.979 270.385 271.173 270.449 271.41 270.449ZM275.031 266.773L275.051 267.242C275.361 266.878 275.779 266.695 276.305 266.695C276.896 266.695 277.298 266.922 277.512 267.375C277.652 267.172 277.835 267.008 278.059 266.883C278.285 266.758 278.552 266.695 278.859 266.695C279.786 266.695 280.258 267.186 280.273 268.168V271H279.551V268.211C279.551 267.909 279.482 267.684 279.344 267.535C279.206 267.384 278.974 267.309 278.648 267.309C278.38 267.309 278.158 267.389 277.98 267.551C277.803 267.71 277.701 267.924 277.672 268.195V271H276.945V268.23C276.945 267.616 276.645 267.309 276.043 267.309C275.569 267.309 275.245 267.51 275.07 267.914V271H274.348V266.773H275.031ZM283.121 271.078C282.548 271.078 282.082 270.891 281.723 270.516C281.363 270.138 281.184 269.634 281.184 269.004V268.871C281.184 268.452 281.263 268.078 281.422 267.75C281.583 267.419 281.807 267.161 282.094 266.977C282.383 266.789 282.695 266.695 283.031 266.695C283.581 266.695 284.008 266.876 284.312 267.238C284.617 267.6 284.77 268.118 284.77 268.793V269.094H281.906C281.917 269.51 282.038 269.848 282.27 270.105C282.504 270.361 282.801 270.488 283.16 270.488C283.415 270.488 283.632 270.436 283.809 270.332C283.986 270.228 284.141 270.09 284.273 269.918L284.715 270.262C284.361 270.806 283.829 271.078 283.121 271.078ZM283.031 267.289C282.74 267.289 282.495 267.396 282.297 267.609C282.099 267.82 281.977 268.117 281.93 268.5H284.047V268.445C284.026 268.078 283.927 267.794 283.75 267.594C283.573 267.391 283.333 267.289 283.031 267.289ZM289.383 268.465C288.74 268.28 288.271 268.053 287.977 267.785C287.685 267.514 287.539 267.181 287.539 266.785C287.539 266.337 287.717 265.967 288.074 265.676C288.434 265.382 288.9 265.234 289.473 265.234C289.863 265.234 290.211 265.31 290.516 265.461C290.823 265.612 291.06 265.82 291.227 266.086C291.396 266.352 291.48 266.642 291.48 266.957H290.727C290.727 266.613 290.617 266.344 290.398 266.148C290.18 265.951 289.871 265.852 289.473 265.852C289.103 265.852 288.814 265.934 288.605 266.098C288.4 266.259 288.297 266.484 288.297 266.773C288.297 267.005 288.395 267.202 288.59 267.363C288.788 267.522 289.122 267.668 289.594 267.801C290.068 267.934 290.438 268.081 290.703 268.242C290.971 268.401 291.169 268.587 291.297 268.801C291.427 269.014 291.492 269.266 291.492 269.555C291.492 270.016 291.312 270.385 290.953 270.664C290.594 270.94 290.113 271.078 289.512 271.078C289.121 271.078 288.757 271.004 288.418 270.855C288.079 270.704 287.818 270.499 287.633 270.238C287.451 269.978 287.359 269.682 287.359 269.352H288.113C288.113 269.695 288.24 269.967 288.492 270.168C288.747 270.366 289.087 270.465 289.512 270.465C289.908 270.465 290.211 270.384 290.422 270.223C290.633 270.061 290.738 269.841 290.738 269.562C290.738 269.284 290.641 269.069 290.445 268.918C290.25 268.764 289.896 268.613 289.383 268.465ZM293.324 265.75V266.773H294.113V267.332H293.324V269.953C293.324 270.122 293.359 270.25 293.43 270.336C293.5 270.419 293.62 270.461 293.789 270.461C293.872 270.461 293.987 270.445 294.133 270.414V271C293.943 271.052 293.758 271.078 293.578 271.078C293.255 271.078 293.012 270.98 292.848 270.785C292.684 270.59 292.602 270.312 292.602 269.953V267.332H291.832V266.773H292.602V265.75H293.324ZM297.57 271C297.529 270.917 297.495 270.768 297.469 270.555C297.133 270.904 296.732 271.078 296.266 271.078C295.849 271.078 295.507 270.961 295.238 270.727C294.973 270.49 294.84 270.19 294.84 269.828C294.84 269.388 295.007 269.047 295.34 268.805C295.676 268.56 296.147 268.438 296.754 268.438H297.457V268.105C297.457 267.853 297.382 267.652 297.23 267.504C297.079 267.353 296.857 267.277 296.562 267.277C296.305 267.277 296.089 267.342 295.914 267.473C295.74 267.603 295.652 267.76 295.652 267.945H294.926C294.926 267.734 295 267.531 295.148 267.336C295.299 267.138 295.503 266.982 295.758 266.867C296.016 266.753 296.298 266.695 296.605 266.695C297.092 266.695 297.474 266.818 297.75 267.062C298.026 267.305 298.169 267.639 298.18 268.066V270.012C298.18 270.4 298.229 270.708 298.328 270.938V271H297.57ZM296.371 270.449C296.598 270.449 296.812 270.391 297.016 270.273C297.219 270.156 297.366 270.004 297.457 269.816V268.949H296.891C296.005 268.949 295.562 269.208 295.562 269.727C295.562 269.953 295.638 270.13 295.789 270.258C295.94 270.385 296.134 270.449 296.371 270.449ZM300.293 265.75V266.773H301.082V267.332H300.293V269.953C300.293 270.122 300.328 270.25 300.398 270.336C300.469 270.419 300.589 270.461 300.758 270.461C300.841 270.461 300.956 270.445 301.102 270.414V271C300.911 271.052 300.727 271.078 300.547 271.078C300.224 271.078 299.98 270.98 299.816 270.785C299.652 270.59 299.57 270.312 299.57 269.953V267.332H298.801V266.773H299.57V265.75H300.293ZM303.684 271.078C303.111 271.078 302.645 270.891 302.285 270.516C301.926 270.138 301.746 269.634 301.746 269.004V268.871C301.746 268.452 301.826 268.078 301.984 267.75C302.146 267.419 302.37 267.161 302.656 266.977C302.945 266.789 303.258 266.695 303.594 266.695C304.143 266.695 304.57 266.876 304.875 267.238C305.18 267.6 305.332 268.118 305.332 268.793V269.094H302.469C302.479 269.51 302.6 269.848 302.832 270.105C303.066 270.361 303.363 270.488 303.723 270.488C303.978 270.488 304.194 270.436 304.371 270.332C304.548 270.228 304.703 270.09 304.836 269.918L305.277 270.262C304.923 270.806 304.392 271.078 303.684 271.078ZM303.594 267.289C303.302 267.289 303.057 267.396 302.859 267.609C302.661 267.82 302.539 268.117 302.492 268.5H304.609V268.445C304.589 268.078 304.49 267.794 304.312 267.594C304.135 267.391 303.896 267.289 303.594 267.289ZM265.41 277.773V280H264.66V274.312H266.758C267.38 274.312 267.867 274.471 268.219 274.789C268.573 275.107 268.75 275.527 268.75 276.051C268.75 276.603 268.577 277.029 268.23 277.328C267.887 277.625 267.393 277.773 266.75 277.773H265.41ZM265.41 277.16H266.758C267.159 277.16 267.466 277.066 267.68 276.879C267.893 276.689 268 276.415 268 276.059C268 275.72 267.893 275.449 267.68 275.246C267.466 275.043 267.173 274.938 266.801 274.93H265.41V277.16ZM270.379 280H269.656V274H270.379V280ZM274.148 280C274.107 279.917 274.073 279.768 274.047 279.555C273.711 279.904 273.31 280.078 272.844 280.078C272.427 280.078 272.085 279.961 271.816 279.727C271.551 279.49 271.418 279.19 271.418 278.828C271.418 278.388 271.585 278.047 271.918 277.805C272.254 277.56 272.725 277.438 273.332 277.438H274.035V277.105C274.035 276.853 273.96 276.652 273.809 276.504C273.658 276.353 273.435 276.277 273.141 276.277C272.883 276.277 272.667 276.342 272.492 276.473C272.318 276.603 272.23 276.76 272.23 276.945H271.504C271.504 276.734 271.578 276.531 271.727 276.336C271.878 276.138 272.081 275.982 272.336 275.867C272.594 275.753 272.876 275.695 273.184 275.695C273.671 275.695 274.052 275.818 274.328 276.062C274.604 276.305 274.747 276.639 274.758 277.066V279.012C274.758 279.4 274.807 279.708 274.906 279.938V280H274.148ZM272.949 279.449C273.176 279.449 273.391 279.391 273.594 279.273C273.797 279.156 273.944 279.004 274.035 278.816V277.949H273.469C272.583 277.949 272.141 278.208 272.141 278.727C272.141 278.953 272.216 279.13 272.367 279.258C272.518 279.385 272.712 279.449 272.949 279.449ZM277.211 278.941L278.195 275.773H278.969L277.27 280.652C277.007 281.355 276.589 281.707 276.016 281.707L275.879 281.695L275.609 281.645V281.059L275.805 281.074C276.049 281.074 276.24 281.025 276.375 280.926C276.513 280.827 276.626 280.646 276.715 280.383L276.875 279.953L275.367 275.773H276.156L277.211 278.941ZM281.316 280.078C280.743 280.078 280.277 279.891 279.918 279.516C279.559 279.138 279.379 278.634 279.379 278.004V277.871C279.379 277.452 279.458 277.078 279.617 276.75C279.779 276.419 280.003 276.161 280.289 275.977C280.578 275.789 280.891 275.695 281.227 275.695C281.776 275.695 282.203 275.876 282.508 276.238C282.812 276.6 282.965 277.118 282.965 277.793V278.094H280.102C280.112 278.51 280.233 278.848 280.465 279.105C280.699 279.361 280.996 279.488 281.355 279.488C281.611 279.488 281.827 279.436 282.004 279.332C282.181 279.228 282.336 279.09 282.469 278.918L282.91 279.262C282.556 279.806 282.025 280.078 281.316 280.078ZM281.227 276.289C280.935 276.289 280.69 276.396 280.492 276.609C280.294 276.82 280.172 277.117 280.125 277.5H282.242V277.445C282.221 277.078 282.122 276.794 281.945 276.594C281.768 276.391 281.529 276.289 281.227 276.289ZM285.848 276.422C285.738 276.404 285.62 276.395 285.492 276.395C285.018 276.395 284.697 276.596 284.527 277V280H283.805V275.773H284.508L284.52 276.262C284.757 275.884 285.092 275.695 285.527 275.695C285.668 275.695 285.775 275.714 285.848 275.75V276.422ZM289.418 280H288.668V274.312H289.418V280ZM291.363 275.773L291.387 276.305C291.71 275.898 292.132 275.695 292.652 275.695C293.546 275.695 293.996 276.199 294.004 277.207V280H293.281V277.203C293.279 276.898 293.208 276.673 293.07 276.527C292.935 276.382 292.723 276.309 292.434 276.309C292.199 276.309 291.993 276.371 291.816 276.496C291.639 276.621 291.501 276.785 291.402 276.988V280H290.68V275.773H291.363ZM298.664 277.934C298.664 278.577 298.517 279.095 298.223 279.488C297.928 279.882 297.53 280.078 297.027 280.078C296.514 280.078 296.111 279.915 295.816 279.59V281.625H295.094V275.773H295.754L295.789 276.242C296.083 275.878 296.492 275.695 297.016 275.695C297.523 275.695 297.924 275.887 298.219 276.27C298.516 276.652 298.664 277.185 298.664 277.867V277.934ZM297.941 277.852C297.941 277.375 297.84 276.999 297.637 276.723C297.434 276.447 297.155 276.309 296.801 276.309C296.363 276.309 296.035 276.503 295.816 276.891V278.91C296.033 279.296 296.363 279.488 296.809 279.488C297.155 279.488 297.43 279.352 297.633 279.078C297.839 278.802 297.941 278.393 297.941 277.852ZM302.195 279.582C301.914 279.913 301.501 280.078 300.957 280.078C300.507 280.078 300.163 279.948 299.926 279.688C299.691 279.424 299.573 279.036 299.57 278.523V275.773H300.293V278.504C300.293 279.145 300.553 279.465 301.074 279.465C301.626 279.465 301.993 279.259 302.176 278.848V275.773H302.898V280H302.211L302.195 279.582ZM304.98 274.75V275.773H305.77V276.332H304.98V278.953C304.98 279.122 305.016 279.25 305.086 279.336C305.156 279.419 305.276 279.461 305.445 279.461C305.529 279.461 305.643 279.445 305.789 279.414V280C305.599 280.052 305.414 280.078 305.234 280.078C304.911 280.078 304.668 279.98 304.504 279.785C304.34 279.59 304.258 279.312 304.258 278.953V276.332H303.488V275.773H304.258V274.75H304.98Z" fill="black"/>
<path d="M96.4648 264H95.7148V258.312H96.4648V264ZM98.4102 259.773L98.4336 260.305C98.7565 259.898 99.1784 259.695 99.6992 259.695C100.592 259.695 101.043 260.199 101.051 261.207V264H100.328V261.203C100.326 260.898 100.255 260.673 100.117 260.527C99.9818 260.382 99.7695 260.309 99.4805 260.309C99.2461 260.309 99.0404 260.371 98.8633 260.496C98.6862 260.621 98.5482 260.785 98.4492 260.988V264H97.7266V259.773H98.4102ZM105.711 261.934C105.711 262.577 105.564 263.095 105.27 263.488C104.975 263.882 104.577 264.078 104.074 264.078C103.561 264.078 103.158 263.915 102.863 263.59V265.625H102.141V259.773H102.801L102.836 260.242C103.13 259.878 103.539 259.695 104.062 259.695C104.57 259.695 104.971 259.887 105.266 260.27C105.562 260.652 105.711 261.185 105.711 261.867V261.934ZM104.988 261.852C104.988 261.375 104.887 260.999 104.684 260.723C104.48 260.447 104.202 260.309 103.848 260.309C103.41 260.309 103.082 260.503 102.863 260.891V262.91C103.079 263.296 103.41 263.488 103.855 263.488C104.202 263.488 104.477 263.352 104.68 263.078C104.885 262.802 104.988 262.393 104.988 261.852ZM109.242 263.582C108.961 263.913 108.548 264.078 108.004 264.078C107.553 264.078 107.21 263.948 106.973 263.688C106.738 263.424 106.62 263.036 106.617 262.523V259.773H107.34V262.504C107.34 263.145 107.6 263.465 108.121 263.465C108.673 263.465 109.04 263.259 109.223 262.848V259.773H109.945V264H109.258L109.242 263.582ZM112.027 258.75V259.773H112.816V260.332H112.027V262.953C112.027 263.122 112.062 263.25 112.133 263.336C112.203 263.419 112.323 263.461 112.492 263.461C112.576 263.461 112.69 263.445 112.836 263.414V264C112.646 264.052 112.461 264.078 112.281 264.078C111.958 264.078 111.715 263.98 111.551 263.785C111.387 263.59 111.305 263.312 111.305 262.953V260.332H110.535V259.773H111.305V258.75H112.027ZM97.7461 270.699H96.4102V273H95.6562V267.312H97.5391C98.1797 267.312 98.6719 267.458 99.0156 267.75C99.362 268.042 99.5352 268.466 99.5352 269.023C99.5352 269.378 99.4388 269.686 99.2461 269.949C99.056 270.212 98.7904 270.409 98.4492 270.539L99.7852 272.953V273H98.9805L97.7461 270.699ZM96.4102 270.086H97.5625C97.9349 270.086 98.2305 269.99 98.4492 269.797C98.6706 269.604 98.7812 269.346 98.7812 269.023C98.7812 268.672 98.6758 268.402 98.4648 268.215C98.2565 268.027 97.9544 267.932 97.5586 267.93H96.4102V270.086ZM102.23 273.078C101.658 273.078 101.191 272.891 100.832 272.516C100.473 272.138 100.293 271.634 100.293 271.004V270.871C100.293 270.452 100.372 270.078 100.531 269.75C100.693 269.419 100.917 269.161 101.203 268.977C101.492 268.789 101.805 268.695 102.141 268.695C102.69 268.695 103.117 268.876 103.422 269.238C103.727 269.6 103.879 270.118 103.879 270.793V271.094H101.016C101.026 271.51 101.147 271.848 101.379 272.105C101.613 272.361 101.91 272.488 102.27 272.488C102.525 272.488 102.741 272.436 102.918 272.332C103.095 272.228 103.25 272.09 103.383 271.918L103.824 272.262C103.47 272.806 102.939 273.078 102.23 273.078ZM102.141 269.289C101.849 269.289 101.604 269.396 101.406 269.609C101.208 269.82 101.086 270.117 101.039 270.5H103.156V270.445C103.135 270.078 103.036 269.794 102.859 269.594C102.682 269.391 102.443 269.289 102.141 269.289ZM104.543 270.852C104.543 270.203 104.697 269.682 105.004 269.289C105.311 268.893 105.714 268.695 106.211 268.695C106.706 268.695 107.098 268.865 107.387 269.203V267H108.109V273H107.445L107.41 272.547C107.121 272.901 106.719 273.078 106.203 273.078C105.714 273.078 105.314 272.878 105.004 272.477C104.697 272.076 104.543 271.552 104.543 270.906V270.852ZM105.266 270.934C105.266 271.413 105.365 271.788 105.562 272.059C105.76 272.329 106.034 272.465 106.383 272.465C106.841 272.465 107.176 272.259 107.387 271.848V269.906C107.171 269.508 106.839 269.309 106.391 269.309C106.036 269.309 105.76 269.445 105.562 269.719C105.365 269.992 105.266 270.397 105.266 270.934ZM111.844 272.582C111.562 272.913 111.15 273.078 110.605 273.078C110.155 273.078 109.811 272.948 109.574 272.688C109.34 272.424 109.221 272.036 109.219 271.523V268.773H109.941V271.504C109.941 272.145 110.202 272.465 110.723 272.465C111.275 272.465 111.642 272.259 111.824 271.848V268.773H112.547V273H111.859L111.844 272.582ZM115.344 272.488C115.602 272.488 115.827 272.41 116.02 272.254C116.212 272.098 116.319 271.902 116.34 271.668H117.023C117.01 271.91 116.927 272.141 116.773 272.359C116.62 272.578 116.414 272.753 116.156 272.883C115.901 273.013 115.63 273.078 115.344 273.078C114.768 273.078 114.31 272.887 113.969 272.504C113.63 272.118 113.461 271.592 113.461 270.926V270.805C113.461 270.393 113.536 270.027 113.688 269.707C113.839 269.387 114.055 269.138 114.336 268.961C114.62 268.784 114.954 268.695 115.34 268.695C115.814 268.695 116.207 268.837 116.52 269.121C116.835 269.405 117.003 269.773 117.023 270.227H116.34C116.319 269.953 116.215 269.729 116.027 269.555C115.842 269.378 115.613 269.289 115.34 269.289C114.973 269.289 114.688 269.422 114.484 269.688C114.284 269.951 114.184 270.332 114.184 270.832V270.969C114.184 271.456 114.284 271.831 114.484 272.094C114.685 272.357 114.971 272.488 115.344 272.488ZM119.59 273.078C119.017 273.078 118.551 272.891 118.191 272.516C117.832 272.138 117.652 271.634 117.652 271.004V270.871C117.652 270.452 117.732 270.078 117.891 269.75C118.052 269.419 118.276 269.161 118.562 268.977C118.852 268.789 119.164 268.695 119.5 268.695C120.049 268.695 120.477 268.876 120.781 269.238C121.086 269.6 121.238 270.118 121.238 270.793V271.094H118.375C118.385 271.51 118.507 271.848 118.738 272.105C118.973 272.361 119.27 272.488 119.629 272.488C119.884 272.488 120.1 272.436 120.277 272.332C120.454 272.228 120.609 272.09 120.742 271.918L121.184 272.262C120.829 272.806 120.298 273.078 119.59 273.078ZM119.5 269.289C119.208 269.289 118.964 269.396 118.766 269.609C118.568 269.82 118.445 270.117 118.398 270.5H120.516V270.445C120.495 270.078 120.396 269.794 120.219 269.594C120.042 269.391 119.802 269.289 119.5 269.289ZM121.902 270.852C121.902 270.203 122.056 269.682 122.363 269.289C122.671 268.893 123.073 268.695 123.57 268.695C124.065 268.695 124.457 268.865 124.746 269.203V267H125.469V273H124.805L124.77 272.547C124.48 272.901 124.078 273.078 123.562 273.078C123.073 273.078 122.673 272.878 122.363 272.477C122.056 272.076 121.902 271.552 121.902 270.906V270.852ZM122.625 270.934C122.625 271.413 122.724 271.788 122.922 272.059C123.12 272.329 123.393 272.465 123.742 272.465C124.201 272.465 124.535 272.259 124.746 271.848V269.906C124.53 269.508 124.198 269.309 123.75 269.309C123.396 269.309 123.12 269.445 122.922 269.719C122.724 269.992 122.625 270.397 122.625 270.934ZM99.8594 281.254C99.6667 281.53 99.3971 281.737 99.0508 281.875C98.707 282.01 98.306 282.078 97.8477 282.078C97.3841 282.078 96.9727 281.97 96.6133 281.754C96.2539 281.535 95.9753 281.225 95.7773 280.824C95.582 280.423 95.4818 279.958 95.4766 279.43V278.934C95.4766 278.077 95.6758 277.413 96.0742 276.941C96.4753 276.47 97.0378 276.234 97.7617 276.234C98.3555 276.234 98.8333 276.387 99.1953 276.691C99.5573 276.993 99.7786 277.423 99.8594 277.98H99.1094C98.9688 277.228 98.5208 276.852 97.7656 276.852C97.263 276.852 96.8815 277.029 96.6211 277.383C96.3633 277.734 96.2331 278.245 96.2305 278.914V279.379C96.2305 280.017 96.3763 280.525 96.668 280.902C96.9596 281.277 97.3542 281.465 97.8516 281.465C98.1328 281.465 98.3789 281.434 98.5898 281.371C98.8008 281.309 98.9753 281.203 99.1133 281.055V279.777H97.7969V279.168H99.8594V281.254ZM103.609 282C103.568 281.917 103.534 281.768 103.508 281.555C103.172 281.904 102.771 282.078 102.305 282.078C101.888 282.078 101.546 281.961 101.277 281.727C101.012 281.49 100.879 281.19 100.879 280.828C100.879 280.388 101.046 280.047 101.379 279.805C101.715 279.56 102.186 279.438 102.793 279.438H103.496V279.105C103.496 278.853 103.421 278.652 103.27 278.504C103.118 278.353 102.896 278.277 102.602 278.277C102.344 278.277 102.128 278.342 101.953 278.473C101.779 278.603 101.691 278.76 101.691 278.945H100.965C100.965 278.734 101.039 278.531 101.188 278.336C101.339 278.138 101.542 277.982 101.797 277.867C102.055 277.753 102.337 277.695 102.645 277.695C103.132 277.695 103.513 277.818 103.789 278.062C104.065 278.305 104.208 278.639 104.219 279.066V281.012C104.219 281.4 104.268 281.708 104.367 281.938V282H103.609ZM102.41 281.449C102.637 281.449 102.852 281.391 103.055 281.273C103.258 281.156 103.405 281.004 103.496 280.816V279.949H102.93C102.044 279.949 101.602 280.208 101.602 280.727C101.602 280.953 101.677 281.13 101.828 281.258C101.979 281.385 102.173 281.449 102.41 281.449ZM106.031 277.773L106.051 278.242C106.361 277.878 106.779 277.695 107.305 277.695C107.896 277.695 108.298 277.922 108.512 278.375C108.652 278.172 108.835 278.008 109.059 277.883C109.285 277.758 109.552 277.695 109.859 277.695C110.786 277.695 111.258 278.186 111.273 279.168V282H110.551V279.211C110.551 278.909 110.482 278.684 110.344 278.535C110.206 278.384 109.974 278.309 109.648 278.309C109.38 278.309 109.158 278.389 108.98 278.551C108.803 278.71 108.701 278.924 108.672 279.195V282H107.945V279.23C107.945 278.616 107.645 278.309 107.043 278.309C106.569 278.309 106.245 278.51 106.07 278.914V282H105.348V277.773H106.031ZM114.121 282.078C113.548 282.078 113.082 281.891 112.723 281.516C112.363 281.138 112.184 280.634 112.184 280.004V279.871C112.184 279.452 112.263 279.078 112.422 278.75C112.583 278.419 112.807 278.161 113.094 277.977C113.383 277.789 113.695 277.695 114.031 277.695C114.581 277.695 115.008 277.876 115.312 278.238C115.617 278.6 115.77 279.118 115.77 279.793V280.094H112.906C112.917 280.51 113.038 280.848 113.27 281.105C113.504 281.361 113.801 281.488 114.16 281.488C114.415 281.488 114.632 281.436 114.809 281.332C114.986 281.228 115.141 281.09 115.273 280.918L115.715 281.262C115.361 281.806 114.829 282.078 114.121 282.078ZM114.031 278.289C113.74 278.289 113.495 278.396 113.297 278.609C113.099 278.82 112.977 279.117 112.93 279.5H115.047V279.445C115.026 279.078 114.927 278.794 114.75 278.594C114.573 278.391 114.333 278.289 114.031 278.289ZM121.055 280.879C121.055 280.684 120.98 280.533 120.832 280.426C120.686 280.316 120.43 280.223 120.062 280.145C119.698 280.066 119.408 279.973 119.191 279.863C118.978 279.754 118.819 279.624 118.715 279.473C118.613 279.322 118.562 279.142 118.562 278.934C118.562 278.587 118.708 278.294 119 278.055C119.294 277.815 119.669 277.695 120.125 277.695C120.604 277.695 120.992 277.819 121.289 278.066C121.589 278.314 121.738 278.63 121.738 279.016H121.012C121.012 278.818 120.927 278.647 120.758 278.504C120.591 278.361 120.38 278.289 120.125 278.289C119.862 278.289 119.656 278.346 119.508 278.461C119.359 278.576 119.285 278.725 119.285 278.91C119.285 279.085 119.354 279.216 119.492 279.305C119.63 279.393 119.879 279.478 120.238 279.559C120.6 279.639 120.893 279.736 121.117 279.848C121.341 279.96 121.507 280.095 121.613 280.254C121.723 280.41 121.777 280.602 121.777 280.828C121.777 281.206 121.626 281.509 121.324 281.738C121.022 281.965 120.63 282.078 120.148 282.078C119.81 282.078 119.51 282.018 119.25 281.898C118.99 281.779 118.785 281.612 118.637 281.398C118.491 281.182 118.418 280.949 118.418 280.699H119.141C119.154 280.941 119.25 281.134 119.43 281.277C119.612 281.418 119.852 281.488 120.148 281.488C120.422 281.488 120.641 281.434 120.805 281.324C120.971 281.212 121.055 281.064 121.055 280.879ZM123.699 276.75V277.773H124.488V278.332H123.699V280.953C123.699 281.122 123.734 281.25 123.805 281.336C123.875 281.419 123.995 281.461 124.164 281.461C124.247 281.461 124.362 281.445 124.508 281.414V282C124.318 282.052 124.133 282.078 123.953 282.078C123.63 282.078 123.387 281.98 123.223 281.785C123.059 281.59 122.977 281.312 122.977 280.953V278.332H122.207V277.773H122.977V276.75H123.699ZM127.945 282C127.904 281.917 127.87 281.768 127.844 281.555C127.508 281.904 127.107 282.078 126.641 282.078C126.224 282.078 125.882 281.961 125.613 281.727C125.348 281.49 125.215 281.19 125.215 280.828C125.215 280.388 125.382 280.047 125.715 279.805C126.051 279.56 126.522 279.438 127.129 279.438H127.832V279.105C127.832 278.853 127.757 278.652 127.605 278.504C127.454 278.353 127.232 278.277 126.938 278.277C126.68 278.277 126.464 278.342 126.289 278.473C126.115 278.603 126.027 278.76 126.027 278.945H125.301C125.301 278.734 125.375 278.531 125.523 278.336C125.674 278.138 125.878 277.982 126.133 277.867C126.391 277.753 126.673 277.695 126.98 277.695C127.467 277.695 127.849 277.818 128.125 278.062C128.401 278.305 128.544 278.639 128.555 279.066V281.012C128.555 281.4 128.604 281.708 128.703 281.938V282H127.945ZM126.746 281.449C126.973 281.449 127.188 281.391 127.391 281.273C127.594 281.156 127.741 281.004 127.832 280.816V279.949H127.266C126.38 279.949 125.938 280.208 125.938 280.727C125.938 280.953 126.013 281.13 126.164 281.258C126.315 281.385 126.509 281.449 126.746 281.449ZM130.668 276.75V277.773H131.457V278.332H130.668V280.953C130.668 281.122 130.703 281.25 130.773 281.336C130.844 281.419 130.964 281.461 131.133 281.461C131.216 281.461 131.331 281.445 131.477 281.414V282C131.286 282.052 131.102 282.078 130.922 282.078C130.599 282.078 130.355 281.98 130.191 281.785C130.027 281.59 129.945 281.312 129.945 280.953V278.332H129.176V277.773H129.945V276.75H130.668ZM134.059 282.078C133.486 282.078 133.02 281.891 132.66 281.516C132.301 281.138 132.121 280.634 132.121 280.004V279.871C132.121 279.452 132.201 279.078 132.359 278.75C132.521 278.419 132.745 278.161 133.031 277.977C133.32 277.789 133.633 277.695 133.969 277.695C134.518 277.695 134.945 277.876 135.25 278.238C135.555 278.6 135.707 279.118 135.707 279.793V280.094H132.844C132.854 280.51 132.975 280.848 133.207 281.105C133.441 281.361 133.738 281.488 134.098 281.488C134.353 281.488 134.569 281.436 134.746 281.332C134.923 281.228 135.078 281.09 135.211 280.918L135.652 281.262C135.298 281.806 134.767 282.078 134.059 282.078ZM133.969 278.289C133.677 278.289 133.432 278.396 133.234 278.609C133.036 278.82 132.914 279.117 132.867 279.5H134.984V279.445C134.964 279.078 134.865 278.794 134.688 278.594C134.51 278.391 134.271 278.289 133.969 278.289Z" fill="black"/>
<rect x="25.5" y="25.5" width="349" height="349" stroke="black"/>
<path d="M168.336 367.465C167.693 367.28 167.224 367.053 166.93 366.785C166.638 366.514 166.492 366.181 166.492 365.785C166.492 365.337 166.671 364.967 167.027 364.676C167.387 364.382 167.853 364.234 168.426 364.234C168.816 364.234 169.164 364.31 169.469 364.461C169.776 364.612 170.013 364.82 170.18 365.086C170.349 365.352 170.434 365.642 170.434 365.957H169.68C169.68 365.613 169.57 365.344 169.352 365.148C169.133 364.951 168.824 364.852 168.426 364.852C168.056 364.852 167.767 364.934 167.559 365.098C167.353 365.259 167.25 365.484 167.25 365.773C167.25 366.005 167.348 366.202 167.543 366.363C167.741 366.522 168.076 366.668 168.547 366.801C169.021 366.934 169.391 367.081 169.656 367.242C169.924 367.401 170.122 367.587 170.25 367.801C170.38 368.014 170.445 368.266 170.445 368.555C170.445 369.016 170.266 369.385 169.906 369.664C169.547 369.94 169.066 370.078 168.465 370.078C168.074 370.078 167.71 370.004 167.371 369.855C167.033 369.704 166.771 369.499 166.586 369.238C166.404 368.978 166.312 368.682 166.312 368.352H167.066C167.066 368.695 167.193 368.967 167.445 369.168C167.701 369.366 168.04 369.465 168.465 369.465C168.861 369.465 169.164 369.384 169.375 369.223C169.586 369.061 169.691 368.841 169.691 368.562C169.691 368.284 169.594 368.069 169.398 367.918C169.203 367.764 168.849 367.613 168.336 367.465ZM173.051 370.078C172.478 370.078 172.012 369.891 171.652 369.516C171.293 369.138 171.113 368.634 171.113 368.004V367.871C171.113 367.452 171.193 367.078 171.352 366.75C171.513 366.419 171.737 366.161 172.023 365.977C172.312 365.789 172.625 365.695 172.961 365.695C173.51 365.695 173.938 365.876 174.242 366.238C174.547 366.6 174.699 367.118 174.699 367.793V368.094H171.836C171.846 368.51 171.967 368.848 172.199 369.105C172.434 369.361 172.73 369.488 173.09 369.488C173.345 369.488 173.561 369.436 173.738 369.332C173.915 369.228 174.07 369.09 174.203 368.918L174.645 369.262C174.29 369.806 173.759 370.078 173.051 370.078ZM172.961 366.289C172.669 366.289 172.424 366.396 172.227 366.609C172.029 366.82 171.906 367.117 171.859 367.5H173.977V367.445C173.956 367.078 173.857 366.794 173.68 366.594C173.503 366.391 173.263 366.289 172.961 366.289ZM177.582 366.422C177.473 366.404 177.354 366.395 177.227 366.395C176.753 366.395 176.431 366.596 176.262 367V370H175.539V365.773H176.242L176.254 366.262C176.491 365.884 176.827 365.695 177.262 365.695C177.402 365.695 177.509 365.714 177.582 365.75V366.422ZM179.715 369.02L180.762 365.773H181.5L179.984 370H179.434L177.902 365.773H178.641L179.715 369.02ZM183.895 370.078C183.322 370.078 182.855 369.891 182.496 369.516C182.137 369.138 181.957 368.634 181.957 368.004V367.871C181.957 367.452 182.036 367.078 182.195 366.75C182.357 366.419 182.581 366.161 182.867 365.977C183.156 365.789 183.469 365.695 183.805 365.695C184.354 365.695 184.781 365.876 185.086 366.238C185.391 366.6 185.543 367.118 185.543 367.793V368.094H182.68C182.69 368.51 182.811 368.848 183.043 369.105C183.277 369.361 183.574 369.488 183.934 369.488C184.189 369.488 184.405 369.436 184.582 369.332C184.759 369.228 184.914 369.09 185.047 368.918L185.488 369.262C185.134 369.806 184.603 370.078 183.895 370.078ZM183.805 366.289C183.513 366.289 183.268 366.396 183.07 366.609C182.872 366.82 182.75 367.117 182.703 367.5H184.82V367.445C184.799 367.078 184.701 366.794 184.523 366.594C184.346 366.391 184.107 366.289 183.805 366.289ZM188.426 366.422C188.316 366.404 188.198 366.395 188.07 366.395C187.596 366.395 187.275 366.596 187.105 367V370H186.383V365.773H187.086L187.098 366.262C187.335 365.884 187.671 365.695 188.105 365.695C188.246 365.695 188.353 365.714 188.426 365.75V366.422ZM194.332 368.516H191.949L191.414 370H190.641L192.812 364.312H193.469L195.645 370H194.875L194.332 368.516ZM192.176 367.898H194.109L193.141 365.238L192.176 367.898ZM198.34 366.422C198.23 366.404 198.112 366.395 197.984 366.395C197.51 366.395 197.189 366.596 197.02 367V370H196.297V365.773H197L197.012 366.262C197.249 365.884 197.585 365.695 198.02 365.695C198.16 365.695 198.267 365.714 198.34 365.75V366.422ZM200.625 369.488C200.883 369.488 201.108 369.41 201.301 369.254C201.493 369.098 201.6 368.902 201.621 368.668H202.305C202.292 368.91 202.208 369.141 202.055 369.359C201.901 369.578 201.695 369.753 201.438 369.883C201.182 370.013 200.911 370.078 200.625 370.078C200.049 370.078 199.591 369.887 199.25 369.504C198.911 369.118 198.742 368.592 198.742 367.926V367.805C198.742 367.393 198.818 367.027 198.969 366.707C199.12 366.387 199.336 366.138 199.617 365.961C199.901 365.784 200.236 365.695 200.621 365.695C201.095 365.695 201.488 365.837 201.801 366.121C202.116 366.405 202.284 366.773 202.305 367.227H201.621C201.6 366.953 201.496 366.729 201.309 366.555C201.124 366.378 200.895 366.289 200.621 366.289C200.254 366.289 199.969 366.422 199.766 366.688C199.565 366.951 199.465 367.332 199.465 367.832V367.969C199.465 368.456 199.565 368.831 199.766 369.094C199.966 369.357 200.253 369.488 200.625 369.488ZM203.84 366.285C204.16 365.892 204.577 365.695 205.09 365.695C205.983 365.695 206.434 366.199 206.441 367.207V370H205.719V367.203C205.716 366.898 205.646 366.673 205.508 366.527C205.372 366.382 205.16 366.309 204.871 366.309C204.637 366.309 204.431 366.371 204.254 366.496C204.077 366.621 203.939 366.785 203.84 366.988V370H203.117V364H203.84V366.285ZM208.309 370H207.586V365.773H208.309V370ZM207.527 364.652C207.527 364.535 207.562 364.436 207.633 364.355C207.706 364.275 207.812 364.234 207.953 364.234C208.094 364.234 208.201 364.275 208.273 364.355C208.346 364.436 208.383 364.535 208.383 364.652C208.383 364.77 208.346 364.867 208.273 364.945C208.201 365.023 208.094 365.062 207.953 365.062C207.812 365.062 207.706 365.023 207.633 364.945C207.562 364.867 207.527 364.77 207.527 364.652ZM210.449 364.75V365.773H211.238V366.332H210.449V368.953C210.449 369.122 210.484 369.25 210.555 369.336C210.625 369.419 210.745 369.461 210.914 369.461C210.997 369.461 211.112 369.445 211.258 369.414V370C211.068 370.052 210.883 370.078 210.703 370.078C210.38 370.078 210.137 369.98 209.973 369.785C209.809 369.59 209.727 369.312 209.727 368.953V366.332H208.957V365.773H209.727V364.75H210.449ZM213.84 370.078C213.267 370.078 212.801 369.891 212.441 369.516C212.082 369.138 211.902 368.634 211.902 368.004V367.871C211.902 367.452 211.982 367.078 212.141 366.75C212.302 366.419 212.526 366.161 212.812 365.977C213.102 365.789 213.414 365.695 213.75 365.695C214.299 365.695 214.727 365.876 215.031 366.238C215.336 366.6 215.488 367.118 215.488 367.793V368.094H212.625C212.635 368.51 212.757 368.848 212.988 369.105C213.223 369.361 213.52 369.488 213.879 369.488C214.134 369.488 214.35 369.436 214.527 369.332C214.704 369.228 214.859 369.09 214.992 368.918L215.434 369.262C215.079 369.806 214.548 370.078 213.84 370.078ZM213.75 366.289C213.458 366.289 213.214 366.396 213.016 366.609C212.818 366.82 212.695 367.117 212.648 367.5H214.766V367.445C214.745 367.078 214.646 366.794 214.469 366.594C214.292 366.391 214.052 366.289 213.75 366.289ZM218.023 369.488C218.281 369.488 218.507 369.41 218.699 369.254C218.892 369.098 218.999 368.902 219.02 368.668H219.703C219.69 368.91 219.607 369.141 219.453 369.359C219.299 369.578 219.094 369.753 218.836 369.883C218.581 370.013 218.31 370.078 218.023 370.078C217.448 370.078 216.99 369.887 216.648 369.504C216.31 369.118 216.141 368.592 216.141 367.926V367.805C216.141 367.393 216.216 367.027 216.367 366.707C216.518 366.387 216.734 366.138 217.016 365.961C217.299 365.784 217.634 365.695 218.02 365.695C218.493 365.695 218.887 365.837 219.199 366.121C219.514 366.405 219.682 366.773 219.703 367.227H219.02C218.999 366.953 218.895 366.729 218.707 366.555C218.522 366.378 218.293 366.289 218.02 366.289C217.652 366.289 217.367 366.422 217.164 366.688C216.964 366.951 216.863 367.332 216.863 367.832V367.969C216.863 368.456 216.964 368.831 217.164 369.094C217.365 369.357 217.651 369.488 218.023 369.488ZM221.496 364.75V365.773H222.285V366.332H221.496V368.953C221.496 369.122 221.531 369.25 221.602 369.336C221.672 369.419 221.792 369.461 221.961 369.461C222.044 369.461 222.159 369.445 222.305 369.414V370C222.115 370.052 221.93 370.078 221.75 370.078C221.427 370.078 221.184 369.98 221.02 369.785C220.855 369.59 220.773 369.312 220.773 368.953V366.332H220.004V365.773H220.773V364.75H221.496ZM225.742 369.582C225.461 369.913 225.048 370.078 224.504 370.078C224.053 370.078 223.71 369.948 223.473 369.688C223.238 369.424 223.12 369.036 223.117 368.523V365.773H223.84V368.504C223.84 369.145 224.1 369.465 224.621 369.465C225.173 369.465 225.54 369.259 225.723 368.848V365.773H226.445V370H225.758L225.742 369.582ZM229.59 366.422C229.48 366.404 229.362 366.395 229.234 366.395C228.76 366.395 228.439 366.596 228.27 367V370H227.547V365.773H228.25L228.262 366.262C228.499 365.884 228.835 365.695 229.27 365.695C229.41 365.695 229.517 365.714 229.59 365.75V366.422ZM231.934 370.078C231.361 370.078 230.895 369.891 230.535 369.516C230.176 369.138 229.996 368.634 229.996 368.004V367.871C229.996 367.452 230.076 367.078 230.234 366.75C230.396 366.419 230.62 366.161 230.906 365.977C231.195 365.789 231.508 365.695 231.844 365.695C232.393 365.695 232.82 365.876 233.125 366.238C233.43 366.6 233.582 367.118 233.582 367.793V368.094H230.719C230.729 368.51 230.85 368.848 231.082 369.105C231.316 369.361 231.613 369.488 231.973 369.488C232.228 369.488 232.444 369.436 232.621 369.332C232.798 369.228 232.953 369.09 233.086 368.918L233.527 369.262C233.173 369.806 232.642 370.078 231.934 370.078ZM231.844 366.289C231.552 366.289 231.307 366.396 231.109 366.609C230.911 366.82 230.789 367.117 230.742 367.5H232.859V367.445C232.839 367.078 232.74 366.794 232.562 366.594C232.385 366.391 232.146 366.289 231.844 366.289Z" fill="black"/>
</svg>
